<?xml version="1.0" encoding="UTF-8"?>
<svg version="1.1" xmlns="http://www.w3.org/2000/svg" width="500" height="500">
<path d="M0 0 C165 0 330 0 500 0 C500 165 500 330 500 500 C335 500 170 500 0 500 C0 335 0 170 0 0 Z " fill="#FEFEFE" transform="translate(0,0)"/>
<path d="M0 0 C13.84669151 13.07872374 20.30165096 29.74662279 21.13671875 48.5078125 C21.23059716 65.10631516 13.27162914 80.64135347 2.10546875 92.49609375 C-13.44504183 107.92357814 -31.19062324 113.49319673 -52.7644043 113.4375 C-61.45839017 113.20970376 -68.45013644 111.57537165 -76.36328125 107.9453125 C-77.34296875 107.49929688 -78.32265625 107.05328125 -79.33203125 106.59375 C-96.27102321 98.07667258 -107.95606152 84.21430375 -114.0078125 66.34765625 C-115.7307309 60.39676846 -115.8057577 54.66691305 -115.73828125 48.5078125 C-115.74988281 47.45271484 -115.76148438 46.39761719 -115.7734375 45.31054688 C-115.70851154 27.72643163 -108.3354148 13.39965753 -96.34375 0.828125 C-69.17421159 -25.08123073 -27.62856395 -24.02086717 0 0 Z " fill="#030301" transform="translate(301.36328125,161.0546875)"/>
<path d="M0 0 C2.6875 0.3125 2.6875 0.3125 5 1 C5.33 0.67 5.66 0.34 6 0 C7.810285 -0.09879565 9.62452727 -0.12971514 11.4375 -0.125 C12.42621094 -0.12757812 13.41492188 -0.13015625 14.43359375 -0.1328125 C17 0 17 0 19 1 C19.61875 0.835 20.2375 0.67 20.875 0.5 C23.28885269 -0.06796534 24.66839233 0.25055468 27 1 C27 0.67 27 0.34 27 0 C30.63 0 34.26 0 38 0 C38 0.66 38 1.32 38 2 C38.86625 1.566875 39.7325 1.13375 40.625 0.6875 C41.73875 0.460625 42.8525 0.23375 44 0 C46.9375 2.0625 46.9375 2.0625 48.41015625 3.5 C50.11731205 5.11068262 51.90417761 6.29356003 53.875 7.5625 C54.90625 8.366875 55.9375 9.17125 57 10 C57 11.32 57 12.64 57 14 C54.83984375 16.1484375 54.83984375 16.1484375 51.9375 18.375 C50.93976563 19.15488281 49.94203125 19.93476562 48.9140625 20.73828125 C47.95242188 21.48464844 46.99078125 22.23101562 46 23 C43.6433085 24.97463401 41.32351544 26.98628662 39 29 C39 28.01 39 27.02 39 26 C37.35 28.64 35.7 31.28 34 34 C34.98871094 34.08636719 35.97742188 34.17273438 36.99609375 34.26171875 C41.47475256 34.90506823 45.08792675 36.72877987 49.0625 38.8125 C49.74376953 39.15603516 50.42503906 39.49957031 51.12695312 39.85351562 C55.28769655 41.98384823 59.16066096 44.33462422 63 47 C62.01 47.495 62.01 47.495 61 48 C58.6796875 47.109375 58.6796875 47.109375 55.875 45.75 C39.13786187 37.86339041 20.74887008 36.31549536 2.8515625 42 C-15.26917661 49.08059729 -29.46253597 61.35391346 -37.4140625 79.16796875 C-42.6075947 93.01116069 -44.16908133 112.57682725 -38.32421875 126.37890625 C-37.66873047 127.67634766 -37.66873047 127.67634766 -37 129 C-36.49082031 130.08152344 -35.98164063 131.16304687 -35.45703125 132.27734375 C-26.51454846 150.14184597 -12.04923275 160.39409935 6.70703125 166.640625 C12.21039159 168.2387748 17.41960799 168.49652797 23.125 168.4375 C24.12402344 168.43282715 25.12304688 168.4281543 26.15234375 168.42333984 C34.93233501 168.25005054 42.64692571 166.64900736 51 164 C53.33005529 163.32135423 55.66491251 162.661211 58 162 C56.28665776 165.42668448 52.2875475 166.13612232 48.875 167.5 C48.12734375 167.80808594 47.3796875 168.11617187 46.609375 168.43359375 C38.42088283 171.75749388 30.8098139 173.49624734 22 174 C21.071875 174.06574219 20.14375 174.13148438 19.1875 174.19921875 C0.17488549 174.94835709 -17.15417396 166.59252034 -31 154 C-46.26451963 138.59650143 -51.32265034 119.76817526 -51.38500977 98.67700195 C-51.2627676 89.54980689 -49.97542941 82.31502028 -46 74 C-45.50371094 72.96101563 -45.00742188 71.92203125 -44.49609375 70.8515625 C-35.40094014 53.80088899 -19.98577506 41.11577122 -1.76171875 34.89453125 C1.92209343 33.85525709 5.16303705 33 9 33 C8.34 31.68 7.68 30.36 7 29 C6.01 29 5.02 29 4 29 C2.52734375 27.75 2.52734375 27.75 0.9375 26 C-3.33303104 21.51869167 -8.11427094 17.78471969 -13 14 C-12.48670267 9.41096861 -12.48670267 9.41096861 -10.29296875 7.55859375 C-9.59816406 7.18863281 -8.90335938 6.81867188 -8.1875 6.4375 C-5.52742397 4.94653212 -3.91057356 3.90290844 -1.8125 1.625 C-1.214375 1.08875 -0.61625 0.5525 0 0 Z " fill="#E9C067" transform="translate(228,105)"/>
<path d="M0 0 C2.6875 0.3125 2.6875 0.3125 5 1 C5.33 0.67 5.66 0.34 6 0 C7.810285 -0.09879565 9.62452727 -0.12971514 11.4375 -0.125 C12.42621094 -0.12757812 13.41492188 -0.13015625 14.43359375 -0.1328125 C17 0 17 0 19 1 C19.61875 0.835 20.2375 0.67 20.875 0.5 C23.28885269 -0.06796534 24.66839233 0.25055468 27 1 C27 0.67 27 0.34 27 0 C30.63 0 34.26 0 38 0 C38 0.66 38 1.32 38 2 C39.299375 1.3503125 39.299375 1.3503125 40.625 0.6875 C41.73875 0.460625 42.8525 0.23375 44 0 C46.9375 2.0625 46.9375 2.0625 48.41015625 3.5 C50.11731205 5.11068262 51.90417761 6.29356003 53.875 7.5625 C54.90625 8.366875 55.9375 9.17125 57 10 C57 11.32 57 12.64 57 14 C54.83984375 16.1484375 54.83984375 16.1484375 51.9375 18.375 C50.93976563 19.15488281 49.94203125 19.93476562 48.9140625 20.73828125 C47.95242188 21.48464844 46.99078125 22.23101562 46 23 C43.6433085 24.97463401 41.32351544 26.98628662 39 29 C39 27.35 39 25.7 39 24 C38.67 24 38.34 24 38 24 C35.78039458 26.3525983 33.59502865 28.73333251 31.421875 31.12890625 C29 33 29 33 26.203125 32.77734375 C25.47609375 32.52082031 24.7490625 32.26429688 24 32 C23.01751476 27.9472484 22.91840426 24.16138263 23 20 C22.34 20 21.68 20 21 20 C21.04125 21.03125 21.0825 22.0625 21.125 23.125 C21.00424851 26.86829627 20.35127982 29.53734547 19 33 C14.07215495 32.582687 12.0222855 30.45014073 8.6875 26.9375 C7.80449219 26.01839844 6.92148438 25.09929687 6.01171875 24.15234375 C5.34785156 23.44207031 4.68398437 22.73179688 4 22 C4.350625 22.5775 4.70125 23.155 5.0625 23.75 C6.14917407 26.35801776 5.93065133 27.39417629 5 30 C4.53851563 29.5153125 4.07703125 29.030625 3.6015625 28.53125 C-1.58496861 23.20121803 -7.11205951 18.53660988 -13 14 C-12.48670267 9.41096861 -12.48670267 9.41096861 -10.29296875 7.55859375 C-9.25076172 7.00365234 -9.25076172 7.00365234 -8.1875 6.4375 C-5.52742397 4.94653212 -3.91057356 3.90290844 -1.8125 1.625 C-1.214375 1.08875 -0.61625 0.5525 0 0 Z " fill="#F4EAD1" transform="translate(228,105)"/>
<path d="M0 0 C0.82693359 -0.00153076 1.65386719 -0.00306152 2.50585938 -0.00463867 C11.08657777 0.14858844 18.5787792 1.74841516 26.125 5.875 C26.76566406 6.22393311 27.40632813 6.57286621 28.06640625 6.93237305 C43.05632464 15.43900213 52.43362697 28.79538018 57.29418945 45.21313477 C59.8221617 57.20306207 59.06363883 72.36063607 53.75 83.375 C53.42257812 84.20257813 53.09515625 85.03015625 52.7578125 85.8828125 C46.98294534 99.32940099 34.73728902 109.44242406 21.625 115.25 C16.93516347 117.0980622 12.77223366 118.08525575 7.75 118.375 C10.84664131 116.31057246 13.93824591 114.87925025 17.3125 113.3125 C30.5101938 106.87996758 39.53932505 96.9041364 44.625 83.125 C49.42295013 69.08066916 50.18394657 51.97990869 43.75 38.375 C43.30269531 37.42238281 42.85539062 36.46976563 42.39453125 35.48828125 C37.13469736 25.15193207 30.49744939 18.54236767 20.75 12.375 C20.0178125 11.88773438 19.285625 11.40046875 18.53125 10.8984375 C5.23009416 2.65750399 -12.55839833 4.31082982 -27.25 7.375 C-19.40570835 0.91825994 -9.78325955 0.00998662 0 0 Z " fill="#CEAE5D" transform="translate(259.25,148.625)"/>
<path d="M0 0 C4.95 0 9.9 0 15 0 C18.25639834 6.21676046 21.13167471 12.51911682 23.8125 19 C24.12646729 19.754021 24.44043457 20.50804199 24.76391602 21.28491211 C27 26.7508263 27 26.7508263 27 29 C27.66 29 28.32 29 29 29 C29.12238037 28.29335205 29.24476074 27.5867041 29.37084961 26.85864258 C30.03170535 23.85594181 30.9753559 21.13533023 32.06640625 18.26171875 C32.46923828 17.19501953 32.87207031 16.12832031 33.28710938 15.02929688 C33.70798828 13.92650391 34.12886719 12.82371094 34.5625 11.6875 C34.98724609 10.56537109 35.41199219 9.44324219 35.84960938 8.28710938 C36.89628054 5.52342709 37.94768215 2.76153715 39 0 C43.95 0 48.9 0 54 0 C52.68 0.99 51.36 1.98 50 3 C49.42674021 4.90047386 49.42674021 4.90047386 49.54589844 7.01245117 C49.54620056 7.81305466 49.54650269 8.61365814 49.54681396 9.43852234 C49.56745911 10.29798965 49.58810425 11.15745697 49.609375 12.04296875 C49.61786469 13.36836418 49.61786469 13.36836418 49.62652588 14.72053528 C49.64892133 17.54340743 49.69912273 20.36501138 49.75 23.1875 C49.77006094 25.10089313 49.78831242 27.01430615 49.8046875 28.92773438 C49.84879643 33.61897842 49.91784515 38.30927418 50 43 C51.32 43 52.64 43 54 43 C54 43.66 54 44.32 54 45 C47.4 45 40.8 45 34 45 C35.32 44.01 36.64 43.02 38 42 C38.35711867 39.42202563 38.46813593 37.27685887 38.390625 34.70703125 C38.38213531 33.64798836 38.38213531 33.64798836 38.37347412 32.56755066 C38.35110411 30.31517374 38.30091199 28.06439497 38.25 25.8125 C38.22993556 24.28452821 38.21168468 22.75653144 38.1953125 21.22851562 C38.15123802 17.48506244 38.08221074 13.74280205 38 10 C37.61666504 10.98919434 37.23333008 11.97838867 36.83837891 12.99755859 C35.41612652 16.66354208 33.98695413 20.32679446 32.55566406 23.98925781 C31.93690617 25.5754336 31.32003296 27.16234591 30.70507812 28.75 C29.82134344 31.03060563 28.93088725 33.30848536 28.0390625 35.5859375 C27.76502594 36.29744965 27.49098938 37.00896179 27.20864868 37.74203491 C26.06907879 40.63580739 25.22376223 42.77623777 23 45 C19.08117219 37.5428131 15.93773516 29.7873982 12.75 22 C12.19038013 20.63920939 11.63048648 19.27853135 11.0703125 17.91796875 C9.71038286 14.61327085 8.35416424 11.30706525 7 8 C6.8762291 12.6263658 6.78558484 17.25176461 6.7253418 21.87939453 C6.70022552 23.45280751 6.66612528 25.02610412 6.62280273 26.59912109 C6.56201601 28.86324772 6.53376418 31.12583022 6.51171875 33.390625 C6.48591232 34.09181458 6.4601059 34.79300415 6.43351746 35.51544189 C6.37839531 37.77564056 6.37839531 37.77564056 7 41 C9.475 42.98 9.475 42.98 12 45 C7.71 45 3.42 45 -1 45 C-0.67 44.34 -0.34 43.68 0 43 C0.99 43 1.98 43 3 43 C3.07410727 37.35834639 3.12858167 31.71697553 3.16479492 26.07495117 C3.1798898 24.15530462 3.20036773 22.2356926 3.22631836 20.31616211 C3.26267109 17.55834436 3.27971912 14.8009822 3.29296875 12.04296875 C3.30845261 11.18350143 3.32393646 10.32403412 3.33988953 9.43852234 C3.34011612 8.63791885 3.34034271 7.83731537 3.34057617 7.01245117 C3.34723801 6.3085173 3.35389984 5.60458344 3.36076355 4.87931824 C3.09221783 2.5310962 3.09221783 2.5310962 0 0 Z " fill="#CAA54D" transform="translate(197,188)"/>
<path d="M0 0 C1.91297122 1.2037056 3.69770163 2.44291421 5.44140625 3.87890625 C6.10140625 2.55890625 6.76140625 1.23890625 7.44140625 -0.12109375 C7.44140625 4.82890625 7.44140625 9.77890625 7.44140625 14.87890625 C6.78140625 14.87890625 6.12140625 14.87890625 5.44140625 14.87890625 C4.953125 12.89322917 4.46484375 10.90755208 3.9765625 8.921875 C3.5312992 7.22207423 2.9970664 5.54588671 2.44140625 3.87890625 C-2.31953292 1.67261736 -6.4212864 1.30809432 -11.55859375 1.87890625 C-16.6235233 5.36807994 -18.47299738 10.01331965 -19.55859375 15.87890625 C-20.34172718 25.15850099 -19.99642379 33.45771273 -14.93359375 41.44140625 C-11.32563968 43.62516792 -7.67906187 43.38874105 -3.55859375 42.87890625 C-2.19326826 41.74189028 -2.19326826 41.74189028 -2.4609375 38.71875 C-2.47253906 37.43097656 -2.48414063 36.14320313 -2.49609375 34.81640625 C-2.50511719 33.52605469 -2.51414062 32.23570312 -2.5234375 30.90625 C-2.53503906 29.90722656 -2.54664063 28.90820312 -2.55859375 27.87890625 C-4.53859375 27.54890625 -6.51859375 27.21890625 -8.55859375 26.87890625 C-8.55859375 26.54890625 -8.55859375 26.21890625 -8.55859375 25.87890625 C-2.28859375 25.87890625 3.98140625 25.87890625 10.44140625 25.87890625 C10.11140625 26.53890625 9.78140625 27.19890625 9.44140625 27.87890625 C9.20866416 30.75801213 9.02167868 33.6203712 8.87890625 36.50390625 C8.81413086 37.70660156 8.81413086 37.70660156 8.74804688 38.93359375 C8.64189168 40.91515735 8.5411377 42.89700896 8.44140625 44.87890625 C7.78140625 44.87890625 7.12140625 44.87890625 6.44140625 44.87890625 C6.11140625 43.88890625 5.78140625 42.89890625 5.44140625 41.87890625 C4.71953125 42.16765625 3.99765625 42.45640625 3.25390625 42.75390625 C2.32578125 43.12515625 1.39765625 43.49640625 0.44140625 43.87890625 C-0.33203125 44.224375 -1.10546875 44.56984375 -1.90234375 44.92578125 C-7.74798923 47.02333639 -14.29677509 46.83333075 -19.93359375 44.19140625 C-24.9102938 41.28069825 -28.94804309 37.67078039 -31.05078125 32.16015625 C-32.68445632 24.82118517 -32.94711862 16.22134954 -28.9609375 9.625 C-21.85837196 0.78141561 -11.30395636 -4.95303126 0 0 Z " fill="#CEA84F" transform="translate(287.55859375,188.12109375)"/>
<path d="M0 0 C4.95 0 9.9 0 15 0 C13.68 0.99 12.36 1.98 11 3 C10.42674021 4.90047386 10.42674021 4.90047386 10.54589844 7.01245117 C10.54620056 7.81305466 10.54650269 8.61365814 10.54681396 9.43852234 C10.56745911 10.29798965 10.58810425 11.15745697 10.609375 12.04296875 C10.61503479 12.9265657 10.62069458 13.81016266 10.62652588 14.72053528 C10.64892133 17.54340743 10.69912273 20.36501138 10.75 23.1875 C10.77006094 25.10089313 10.78831242 27.01430615 10.8046875 28.92773438 C10.84879643 33.61897842 10.91784515 38.30927418 11 43 C12.32 43 13.64 43 15 43 C15 43.66 15 44.32 15 45 C8.4 45 1.8 45 -5 45 C-2.525 42.525 -2.525 42.525 0 40 C0.50722152 37.16267681 0.72254511 34.90626219 0.70703125 32.07421875 C0.72215256 31.32662796 0.73727386 30.57903717 0.75285339 29.80879211 C0.79564081 27.43471913 0.8045588 25.06191969 0.8125 22.6875 C0.83565158 21.07223198 0.86101831 19.45699409 0.88867188 17.84179688 C0.95143457 13.89441914 0.98383984 9.94783246 1 6 C0.34 6 -0.32 6 -1 6 C-0.67 4.02 -0.34 2.04 0 0 Z " fill="#D3AC51" transform="translate(236,188)"/>
<path d="M0 0 C3.3 0 6.6 0 10 0 C11.32 2.64 12.64 5.28 14 8 C16.01486569 4.12479873 16.01486569 4.12479873 17 0 C20.63 0 24.26 0 28 0 C28 7.26 28 14.52 28 22 C25.36 22 22.72 22 20 22 C20 17.38 20 12.76 20 8 C18.02 12.29 16.04 16.58 14 21 C10.78917426 16.71889901 9.08817696 12.89641495 7 8 C7 12.62 7 17.24 7 22 C4.69 22 2.38 22 0 22 C0 14.74 0 7.48 0 0 Z " fill="#D7B157" transform="translate(90,294)"/>
<path d="M0 0 C3.63 0 7.26 0 11 0 C11 0.66 11 1.32 11 2 C11.86625 1.566875 12.7325 1.13375 13.625 0.6875 C14.73875 0.460625 15.8525 0.23375 17 0 C19.9375 2.0625 19.9375 2.0625 21.41015625 3.5 C23.11731205 5.11068262 24.90417761 6.29356003 26.875 7.5625 C27.90625 8.366875 28.9375 9.17125 30 10 C30 11.32 30 12.64 30 14 C27.83984375 16.1484375 27.83984375 16.1484375 24.9375 18.375 C23.93976563 19.15488281 22.94203125 19.93476562 21.9140625 20.73828125 C20.95242188 21.48464844 19.99078125 22.23101562 19 23 C16.6433085 24.97463401 14.32351544 26.98628662 12 29 C12 26.33333333 12 23.66666667 12 21 C9.36 23.64 6.72 26.28 4 29 C3.67 28.34 3.34 27.68 3 27 C3.91266426 24.6317683 4.8749407 22.36199922 5.9375 20.0625 C8.83509322 13.74690324 9.04485438 9.92216025 8 3 C7.05125 2.87625 6.1025 2.7525 5.125 2.625 C2 2 2 2 0 0 Z " fill="#F6EEDB" transform="translate(255,105)"/>
<path d="M0 0 C2.97 0 5.94 0 9 0 C9.99 2.97 10.98 5.94 12 9 C12.66 9 13.32 9 14 9 C14.99 6.03 15.98 3.06 17 0 C20.3 0 23.6 0 27 0 C27 7.26 27 14.52 27 22 C24.36 22 21.72 22 19 22 C19 17.71 19 13.42 19 9 C17.02 12.96 15.04 16.92 13 21 C9.29486661 17.29486661 7.93492254 11.78638732 6 7 C6 11.95 6 16.9 6 22 C3.69 22 1.38 22 -1 22 C-0.67 14.74 -0.34 7.48 0 0 Z " fill="#D8B259" transform="translate(349,294)"/>
<path d="M0 0 C2.31 0 4.62 0 7 0 C7 2.64 7 5.28 7 8 C10.63 8 14.26 8 18 8 C17.67 5.36 17.34 2.72 17 0 C19.31 0 21.62 0 24 0 C24.33 7.26 24.66 14.52 25 22 C22.36 22 19.72 22 17 22 C17.33 19.03 17.66 16.06 18 13 C14.37 13 10.74 13 7 13 C7 15.97 7 18.94 7 22 C4.36 22 1.72 22 -1 22 C-0.67 14.74 -0.34 7.48 0 0 Z " fill="#D8B35A" transform="translate(245,294)"/>
<path d="M0 0 C1.13566406 -0.00515625 2.27132813 -0.0103125 3.44140625 -0.015625 C6.4375 0.25 6.4375 0.25 9.4375 2.25 C9.1075 3.57 8.7775 4.89 8.4375 6.25 C7.45007813 6.21519531 6.46265625 6.18039062 5.4453125 6.14453125 C3.52332031 6.10392578 3.52332031 6.10392578 1.5625 6.0625 C0.28632813 6.02769531 -0.98984375 5.99289062 -2.3046875 5.95703125 C-3.37976563 6.05371094 -4.45484375 6.15039062 -5.5625 6.25 C-7.90025029 9.08573263 -7.90025029 9.08573263 -7.3125 12.375 C-7.065 13.32375 -6.8175 14.2725 -6.5625 15.25 C-4.12862247 16.46693876 -2.14411154 16.56959896 0.5625 16.8125 C1.47257812 16.89628906 2.38265625 16.98007812 3.3203125 17.06640625 C4.01898438 17.12699219 4.71765625 17.18757813 5.4375 17.25 C5.4375 16.26 5.4375 15.27 5.4375 14.25 C3.4575 14.25 1.4775 14.25 -0.5625 14.25 C-0.5625 12.93 -0.5625 11.61 -0.5625 10.25 C3.3975 10.25 7.3575 10.25 11.4375 10.25 C11.7675 13.22 12.0975 16.19 12.4375 19.25 C6.63165298 23.23115224 0.27294388 23.04906078 -6.5625 22.25 C-10.37953861 20.80533233 -12.29250696 18.65498956 -14.5625 15.25 C-15.23049205 8.34741551 -15.23049205 8.34741551 -12.8125 4.375 C-8.68845903 0.48007241 -5.65102475 -0.0257157 0 0 Z " fill="#D8B35B" transform="translate(302.5625,293.75)"/>
<path d="M0 0 C6.93 0 13.86 0 21 0 C21 1.65 21 3.3 21 5 C16.38 5 11.76 5 7 5 C7 5.99 7 6.98 7 8 C9.97 8 12.94 8 16 8 C16 9.65 16 11.3 16 13 C13.03 13 10.06 13 7 13 C7 14.32 7 15.64 7 17 C11.62 17 16.24 17 21 17 C21 18.65 21 20.3 21 22 C13.74 22 6.48 22 -1 22 C-0.67 14.74 -0.34 7.48 0 0 Z " fill="#D8B35A" transform="translate(321,294)"/>
<path d="M0 0 C6.93 0 13.86 0 21 0 C21 1.65 21 3.3 21 5 C16.38 5 11.76 5 7 5 C7 5.99 7 6.98 7 8 C9.97 8 12.94 8 16 8 C16 9.65 16 11.3 16 13 C13.03 13 10.06 13 7 13 C7 14.32 7 15.64 7 17 C11.62 17 16.24 17 21 17 C21 18.65 21 20.3 21 22 C13.74 22 6.48 22 -1 22 C-0.67 14.74 -0.34 7.48 0 0 Z " fill="#D8B35A" transform="translate(189,294)"/>
<path d="M0 0 C2.31 0 4.62 0 7 0 C7 2.64 7 5.28 7 8 C10.63 8 14.26 8 18 8 C17.67 5.36 17.34 2.72 17 0 C19.64 0 22.28 0 25 0 C25 7.26 25 14.52 25 22 C22.36 22 19.72 22 17 22 C17.33 19.03 17.66 16.06 18 13 C14.37 13 10.74 13 7 13 C7.33 15.97 7.66 18.94 8 22 C5.36 22 2.72 22 0 22 C0 14.74 0 7.48 0 0 Z " fill="#D7B055" transform="translate(156,294)"/>
<path d="M0 0 C1.58167969 0.03867187 1.58167969 0.03867187 3.1953125 0.078125 C6.23001996 0.25616117 9.15529035 0.59006452 12.125 1.25 C11.465 2.9 10.805 4.55 10.125 6.25 C5.505 5.59 0.885 4.93 -3.875 4.25 C-3.875 5.24 -3.875 6.23 -3.875 7.25 C-2.77091797 7.30607422 -2.77091797 7.30607422 -1.64453125 7.36328125 C8.95219547 8.07719547 8.95219547 8.07719547 13.125 12.25 C13.4375 14.5625 13.4375 14.5625 13.125 17.25 C10.8772146 20.04035429 9.54769984 21.10910005 6.125 22.25 C0.15146613 22.65323698 -5.29603644 22.66252478 -10.875 20.25 C-10.215 18.27 -9.555 16.29 -8.875 14.25 C-8.33359375 14.57742188 -7.7921875 14.90484375 -7.234375 15.2421875 C-4.36780933 16.46664767 -2.2297013 16.44892146 0.875 16.375 C1.85984375 16.35695313 2.8446875 16.33890625 3.859375 16.3203125 C4.60703125 16.29710937 5.3546875 16.27390625 6.125 16.25 C6.455 15.59 6.785 14.93 7.125 14.25 C6.14917969 14.14042969 5.17335938 14.03085937 4.16796875 13.91796875 C2.89566406 13.75941406 1.62335938 13.60085938 0.3125 13.4375 C-0.95207031 13.28667969 -2.21664063 13.13585937 -3.51953125 12.98046875 C-6.79938214 12.26646163 -8.04108875 11.99422227 -9.875 9.25 C-10.3125 6.25 -10.3125 6.25 -9.875 3.25 C-6.75081196 0.10375887 -4.33078658 -0.11019813 0 0 Z " fill="#D9B45B" transform="translate(392.875,293.75)"/>
<path d="M0 0 C1.58167969 0.03867187 1.58167969 0.03867187 3.1953125 0.078125 C6.23001996 0.25616117 9.15529035 0.59006452 12.125 1.25 C11.465 2.9 10.805 4.55 10.125 6.25 C5.505 5.59 0.885 4.93 -3.875 4.25 C-3.875 5.24 -3.875 6.23 -3.875 7.25 C-2.77091797 7.30607422 -2.77091797 7.30607422 -1.64453125 7.36328125 C8.95219547 8.07719547 8.95219547 8.07719547 13.125 12.25 C13.4375 14.5625 13.4375 14.5625 13.125 17.25 C10.8772146 20.04035429 9.54769984 21.10910005 6.125 22.25 C0.15146613 22.65323698 -5.29603644 22.66252478 -10.875 20.25 C-10.215 18.27 -9.555 16.29 -8.875 14.25 C-8.33359375 14.57742188 -7.7921875 14.90484375 -7.234375 15.2421875 C-4.36780933 16.46664767 -2.2297013 16.44892146 0.875 16.375 C1.85984375 16.35695313 2.8446875 16.33890625 3.859375 16.3203125 C4.60703125 16.29710937 5.3546875 16.27390625 6.125 16.25 C6.455 15.59 6.785 14.93 7.125 14.25 C6.14917969 14.14042969 5.17335937 14.03085937 4.16796875 13.91796875 C2.89566406 13.75941406 1.62335938 13.60085938 0.3125 13.4375 C-0.95207031 13.28667969 -2.21664062 13.13585937 -3.51953125 12.98046875 C-6.79938214 12.26646163 -8.04108875 11.99422227 -9.875 9.25 C-10.3125 6.25 -10.3125 6.25 -9.875 3.25 C-6.75081196 0.10375887 -4.33078658 -0.11019813 0 0 Z " fill="#D9B45B" transform="translate(225.875,293.75)"/>
<path d="M0 0 C2.97 0 5.94 0 9 0 C10.50290811 3.47791766 12.00183816 6.95753548 13.5 10.4375 C13.92925781 11.43072266 14.35851562 12.42394531 14.80078125 13.44726562 C15.40986328 14.86362305 15.40986328 14.86362305 16.03125 16.30859375 C16.40830078 17.18314209 16.78535156 18.05769043 17.17382812 18.95874023 C18 21 18 21 18 22 C15.36 22 12.72 22 10 22 C9.67 20.68 9.34 19.36 9 18 C5.7 17.67 2.4 17.34 -1 17 C-1.33 18.65 -1.66 20.3 -2 22 C-3.98 22 -5.96 22 -8 22 C-5.92957946 14.39162534 -3.14169523 7.2271408 0 0 Z " fill="#D8B258" transform="translate(132,294)"/>
<path d="M0 0 C5.75 1.875 5.75 1.875 8 3 C8 3.66 8 4.32 8 5 C4.04 6.98 4.04 6.98 0 9 C0 9.33 0 9.66 0 10 C1.60875 10.00193359 1.60875 10.00193359 3.25 10.00390625 C7 11 7 11 8.25 12.55029297 C9.30897118 14.64393277 10.17603117 16.74088264 11 18.9375 C11.31066406 19.67935547 11.62132812 20.42121094 11.94140625 21.18554688 C12.71214549 23.09165759 13.3654981 25.04431486 14 27 C13.67 27.66 13.34 28.32 13 29 C5.24848914 21.4215998 5.24848914 21.4215998 2.1875 17.5625 C0.19052724 14.77672016 0.19052724 14.77672016 -3 14 C-2.41089844 14.91523437 -1.82179687 15.83046875 -1.21484375 16.7734375 C-0.45530782 17.97369181 0.30378391 19.17422729 1.0625 20.375 C1.45244141 20.97828125 1.84238281 21.5815625 2.24414062 22.203125 C3.22460432 23.76492557 4.11916075 25.37992214 5 27 C4.67 27.66 4.34 28.32 4 29 C3.61070312 28.5875 3.22140625 28.175 2.8203125 27.75 C-2.08988909 22.68140481 -7.42584141 18.31801018 -13 14 C-12.48670267 9.41096861 -12.48670267 9.41096861 -10.29296875 7.55859375 C-9.25076172 7.00365234 -9.25076172 7.00365234 -8.1875 6.4375 C-4.96816919 4.61109329 -2.4833598 2.79377978 0 0 Z " fill="#F5EBD4" transform="translate(228,105)"/>
<path d="M0 0 C1.79158489 -0.02696365 3.58328473 -0.04637917 5.375 -0.0625 C6.37273437 -0.07410156 7.37046875 -0.08570312 8.3984375 -0.09765625 C11 0 11 0 13 1 C13.92039063 0.72349609 13.92039063 0.72349609 14.859375 0.44140625 C17.65887057 -0.135862 18.77896962 0.57843329 21.25 1.9375 C21.95640625 2.31777344 22.6628125 2.69804688 23.390625 3.08984375 C23.92171875 3.39019531 24.4528125 3.69054687 25 4 C21.07161617 8.58311447 16.33228907 11.69620157 10.2578125 12.25 C7.82494043 12.25 5.42579595 12.17895216 3 12 C2.67 12.66 2.34 13.32 2 14 C1.67 13.01 1.34 12.02 1 11 C-0.670625 11.061875 -0.670625 11.061875 -2.375 11.125 C-6 11 -6 11 -8 9 C-6.71086513 8.32845067 -5.41859796 7.66291141 -4.125 7 C-3.40570313 6.62875 -2.68640625 6.2575 -1.9453125 5.875 C0 5 0 5 2 5 C2 4.34 2 3.68 2 3 C1.01 2.67 0.02 2.34 -1 2 C-0.67 1.34 -0.34 0.68 0 0 Z " fill="#FAF5EA" transform="translate(234,105)"/>
<path d="M0 0 C3.63 0 7.26 0 11 0 C11 0.66 11 1.32 11 2 C11.928125 1.62875 12.85625 1.2575 13.8125 0.875 C15.3903125 0.441875 15.3903125 0.441875 17 0 C17.99 0.66 18.98 1.32 20 2 C20.40843923 4.71203652 20.13336867 7.2437142 20 10 C17.78704384 11.10647808 16.45327301 11.19588368 14 11.25 C12.948125 11.28867188 12.948125 11.28867188 11.875 11.328125 C11.25625 11.21984375 10.6375 11.1115625 10 11 C7.8480563 7.77208445 7.79913557 6.71599191 8 3 C7.05125 2.87625 6.1025 2.7525 5.125 2.625 C2 2 2 2 0 0 Z " fill="#F8F1E1" transform="translate(255,105)"/>
<path d="M0 0 C3.375 0.5625 3.375 0.5625 7 2 C8.4375 5.625 8.4375 5.625 9 9 C11.97 9.495 11.97 9.495 15 10 C15 10.33 15 10.66 15 11 C14.08992188 10.98839844 13.17984375 10.97679688 12.2421875 10.96484375 C8.99827857 11.63551981 8.99827857 11.63551981 7.84863281 13.67626953 C6.82591751 15.94247842 5.95345888 18.21833795 5.125 20.5625 C4.81820313 21.36880859 4.51140625 22.17511719 4.1953125 23.00585938 C3.44173194 24.99578304 2.71795526 26.9969473 2 29 C1.34 28.01 0.68 27.02 0 26 C1.01122423 23.29453165 2.07482145 20.87222652 3.375 18.3125 C3.71789062 17.61060547 4.06078125 16.90871094 4.4140625 16.18554688 C5.26367583 14.45091967 6.13026287 12.72462508 7 11 C3.04 11 -0.92 11 -5 11 C-2.9957983 6.9915966 -1.50944037 5.58590343 2 3 C1.01 2.34 0.02 1.68 -1 1 C-0.67 0.67 -0.34 0.34 0 0 Z " fill="#FAF6EC" transform="translate(256,106)"/>
<path d="M0 0 C0.99 0.33 1.98 0.66 3 1 C2.97381592 2.06959961 2.94763184 3.13919922 2.9206543 4.24121094 C2.83006893 8.21430495 2.77272143 12.18730798 2.7253418 16.16113281 C2.70021633 17.88003901 2.66610953 19.59883856 2.62280273 21.31738281 C2.56205971 23.78998114 2.53377238 26.26116606 2.51171875 28.734375 C2.48591232 29.50118591 2.4601059 30.26799683 2.43351746 31.05804443 C2.37770911 33.51499685 2.37770911 33.51499685 3 37 C5.475 38.98 5.475 38.98 8 41 C3.71 41 -0.58 41 -5 41 C-4.67 40.34 -4.34 39.68 -4 39 C-3.01 39 -2.02 39 -1 39 C-0.67 26.13 -0.34 13.26 0 0 Z " fill="#9F823D" transform="translate(201,192)"/>
<path d="M0 0 C3.63 0 7.26 0 11 0 C10.09789442 4.51052789 8.88930512 7.70125091 6.9375 11.8125 C6.38964844 12.97394531 5.84179688 14.13539063 5.27734375 15.33203125 C4.85582031 16.21246094 4.43429688 17.09289062 4 18 C3.67 18 3.34 18 3 18 C2.01 12.06 1.02 6.12 0 0 Z " fill="#D7B156" transform="translate(251,118)"/>
<path d="M0 0 C3.63 0 7.26 0 11 0 C10.01 5.94 9.02 11.88 8 18 C5.55077824 14.73437099 3.97004015 12.09603456 2.3125 8.4375 C1.87550781 7.48746094 1.43851563 6.53742188 0.98828125 5.55859375 C0 3 0 3 0 0 Z " fill="#D7B156" transform="translate(238,118)"/>
<path d="M0 0 C0.78761719 0.27328125 1.57523438 0.5465625 2.38671875 0.828125 C4.3125 1.75 4.3125 1.75 5.3125 3.75 C-0.66089593 8.72496088 -0.66089593 8.72496088 -4.25 8.8125 C-7.3368684 7.46694198 -9.96068404 5.71584407 -12.6875 3.75 C-5.41066384 -1.96751412 -5.41066384 -1.96751412 0 0 Z " fill="#D8B35A" transform="translate(253.6875,106.25)"/>
<path d="M0 0 C2.97 0 5.94 0 9 0 C10.03040167 2.28779038 11.04952018 4.57951136 12.0625 6.875 C12.35705078 7.52597656 12.65160156 8.17695312 12.95507812 8.84765625 C13.69661513 10.54010541 14.35439001 12.26868575 15 14 C14.67 14.66 14.34 15.32 14 16 C8.75459942 10.99423701 4.21607886 5.9025104 0 0 Z " fill="#D9B45C" transform="translate(227,118)"/>
<path d="M0 0 C2.97 0 5.94 0 9 0 C4.78392114 5.9025104 0.24540058 10.99423701 -5 16 C-5.33 15.34 -5.66 14.68 -6 14 C-5.09176973 11.56442428 -4.13171929 9.23804483 -3.0625 6.875 C-2.77181641 6.21628906 -2.48113281 5.55757813 -2.18164062 4.87890625 C-1.46139802 3.24950495 -0.73158857 1.62433868 0 0 Z " fill="#D8B35B" transform="translate(264,118)"/>
<path d="M0 0 C3.40657428 0.57106556 4.87988318 1.56927305 7.12890625 4.16015625 C7.68900391 4.78857422 8.24910156 5.41699219 8.82617188 6.06445312 C9.39916016 6.72380859 9.97214844 7.38316406 10.5625 8.0625 C11.70197985 9.37258354 12.84880182 10.67632798 14.00390625 11.97265625 C14.75909546 12.84289429 14.75909546 12.84289429 15.52954102 13.73071289 C17.05474344 15.32671339 17.05474344 15.32671339 20 15 C20 15.99 20 16.98 20 18 C15.89552608 17.48223379 14.04300477 15.35372556 11.25 12.4375 C10.45078125 11.61121094 9.6515625 10.78492188 8.828125 9.93359375 C8.22484375 9.29550781 7.6215625 8.65742187 7 8 C7.350625 8.5775 7.70125 9.155 8.0625 9.75 C9.14917407 12.35801776 8.93065133 13.39417629 8 16 C7.03810003 14.27281484 6.08063492 12.54315942 5.125 10.8125 C4.59132812 9.84957031 4.05765625 8.88664062 3.5078125 7.89453125 C2.1576322 5.30260482 1.02901671 2.73238902 0 0 Z " fill="#F8F2E2" transform="translate(225,119)"/>
<path d="M0 0 C2.1875 0.0390625 2.1875 0.0390625 5.6875 0.8515625 C0.86667294 6.81416439 -4.53744276 11.81836044 -10.3125 16.8515625 C-10.3125 11.31911897 -5.3962784 1.98714306 0 0 Z " fill="#D9B45D" transform="translate(278.3125,117.1484375)"/>
<path d="M0 0 C2.98773666 -0.34851647 5.10354331 -0.59072915 8 0 C10.29833798 1.93583109 11.61171709 4.26920012 13.0625 6.875 C13.46404297 7.52597656 13.86558594 8.17695312 14.27929688 8.84765625 C15.27474962 10.51534047 16.14820996 12.25456293 17 14 C16.67 14.66 16.34 15.32 16 16 C15.5875 15.57589844 15.175 15.15179688 14.75 14.71484375 C10.85824049 10.7622755 6.84154834 7.05744522 2.6015625 3.48046875 C1 2 1 2 0 0 Z " fill="#D9B45C" transform="translate(216,118)"/>
<path d="M0 0 C8.13952903 -0.61046468 13.5737569 -0.2922002 20 5 C20.66 3.68 21.32 2.36 22 1 C22 5.95 22 10.9 22 16 C21.34 16 20.68 16 20 16 C19.51171875 14.01432292 19.0234375 12.02864583 18.53515625 10.04296875 C18.08989295 8.34316798 17.55566015 6.66698046 17 5 C14.378699 3.9989331 14.378699 3.9989331 11.25 3.375 C10.20328125 3.13523438 9.1565625 2.89546875 8.078125 2.6484375 C5.38847799 2.08183673 2.6971884 1.52944809 0 1 C0 0.67 0 0.34 0 0 Z " fill="#CBA64E" transform="translate(273,187)"/>
<path d="M0 0 C1.051875 0.5878125 1.051875 0.5878125 2.125 1.1875 C2.125 3.8275 2.125 6.4675 2.125 9.1875 C-1.505 7.5375 -5.135 5.8875 -8.875 4.1875 C-8.875 3.5275 -8.875 2.8675 -8.875 2.1875 C-3.58269231 -1.0125 -3.58269231 -1.0125 0 0 Z " fill="#D8B35A" transform="translate(272.875,105.8125)"/>
<path d="M0 0 C2.8475987 0.75548537 5.36772716 1.68386358 8 3 C8 3.66 8 4.32 8 5 C2.555 7.475 2.555 7.475 -3 10 C-3.29296875 3.9453125 -3.29296875 3.9453125 -3 2 C-2.01 1.34 -1.02 0.68 0 0 Z " fill="#D8B35A" transform="translate(228,105)"/>
<path d="M0 0 C0.66 0 1.32 0 2 0 C2.99 2.97 3.98 5.94 5 9 C2.36 9 -0.28 9 -3 9 C-2.01 6.03 -1.02 3.06 0 0 Z " fill="#FAF6EB" transform="translate(135,299)"/>
<path d="M0 0 C0 3.67034745 -1.0752892 5.0999431 -3 8.1875 C-3.556875 9.08855469 -4.11375 9.98960937 -4.6875 10.91796875 C-5.120625 11.60503906 -5.55375 12.29210937 -6 13 C-7.32 12.67 -8.64 12.34 -10 12 C-8.52278578 8.54798361 -6.56205999 6.35038064 -3.875 3.75 C-3.15054687 3.04359375 -2.42609375 2.3371875 -1.6796875 1.609375 C-1.12539063 1.07828125 -0.57109375 0.5471875 0 0 Z " fill="#D9B663" transform="translate(268,126)"/>
<path d="M0 0 C-2.41464681 1.15026086 -4.83153318 2.29532205 -7.25 3.4375 C-7.93191406 3.76298828 -8.61382812 4.08847656 -9.31640625 4.42382812 C-9.98027344 4.73642578 -10.64414062 5.04902344 -11.328125 5.37109375 C-12.23933105 5.8031311 -12.23933105 5.8031311 -13.16894531 6.24389648 C-15.08888746 7.03670459 -16.9758162 7.54475403 -19 8 C-18.72045898 6.0949707 -18.72045898 6.0949707 -18 4 C-15.30688909 2.8398448 -12.86206668 1.97389513 -10.0625 1.1875 C-8.9497168 0.84428711 -8.9497168 0.84428711 -7.81445312 0.49414062 C-2.28831993 -1.14415997 -2.28831993 -1.14415997 0 0 Z " fill="#A38C56" transform="translate(286,268)"/>
<path d="M0 0 C0.66 0 1.32 0 2 0 C2.2475 0.598125 2.495 1.19625 2.75 1.8125 C4.07752171 4.4715904 4.07752171 4.4715904 8 7 C3.71 7 -0.58 7 -5 7 C-4.67 6.34 -4.34 5.68 -4 5 C-3.01 5 -2.02 5 -1 5 C-0.67 3.35 -0.34 1.7 0 0 Z " fill="#BD9A48" transform="translate(201,226)"/>
<path d="M0 0 C0.66 0 1.32 0 2 0 C2.66 4.29 3.32 8.58 4 13 C2.35 12.67 0.7 12.34 -1 12 C-0.67 8.04 -0.34 4.08 0 0 Z " fill="#D7B25A" transform="translate(249,125)"/>
<path d="M0 0 C0.66 0.33 1.32 0.66 2 1 C1 4 1 4 -1.328125 5.16796875 C-2.29234375 5.50441406 -3.2565625 5.84085937 -4.25 6.1875 C-5.68085938 6.70376953 -5.68085938 6.70376953 -7.140625 7.23046875 C-9.91094835 7.97603391 -12.14936469 8.15085479 -15 8 C-12.05213324 6.03475549 -9.09027063 4.42527817 -5.9375 2.8125 C-4.87402344 2.26207031 -3.81054688 1.71164062 -2.71484375 1.14453125 C-1.81894531 0.76683594 -0.92304688 0.38914062 0 0 Z " fill="#957C44" transform="translate(282,259)"/>
<path d="M0 0 C0 3 0 3 -2.3359375 5.69921875 C-3.34119508 6.70314662 -4.35458968 7.6989775 -5.375 8.6875 C-5.88289063 9.19861328 -6.39078125 9.70972656 -6.9140625 10.23632812 C-10.73300859 14 -10.73300859 14 -13 14 C-12.67 12.35 -12.34 10.7 -12 9 C-11.01 9 -10.02 9 -9 9 C-6.64333024 7.00842351 -6.64333024 7.00842351 -4.3125 4.5 C-3.50425781 3.6646875 -2.69601562 2.829375 -1.86328125 1.96875 C-1.24839844 1.3190625 -0.63351562 0.669375 0 0 Z " fill="#FCF9F3" transform="translate(268,124)"/>
<path d="M0 0 C0.99 0.33 1.98 0.66 3 1 C3.33 2.32 3.66 3.64 4 5 C0.7 5 -2.6 5 -6 5 C-2.25 1.125 -2.25 1.125 0 0 Z " fill="#DDBC6E" transform="translate(259,111)"/>
<path d="M0 0 C3.64553172 1.2808625 5.16671013 2.16671013 8 5 C4.7 5 1.4 5 -2 5 C-1.34 3.35 -0.68 1.7 0 0 Z " fill="#DCBB6C" transform="translate(239,111)"/>
<path d="M0 0 C10.97592998 -0.63019694 10.97592998 -0.63019694 15.25 2 C15.8275 2.66 16.405 3.32 17 4 C13.42491076 4 10.30414953 3.26880357 6.8125 2.5 C5.54019531 2.2215625 4.26789063 1.943125 2.95703125 1.65625 C1.98121094 1.4396875 1.00539063 1.223125 0 1 C0 0.67 0 0.34 0 0 Z " fill="#A4863F" transform="translate(273,187)"/>
<path d="M0 0 C1.1055189 0.93590504 2.20935453 1.87379858 3.3125 2.8125 C3.92738281 3.33457031 4.54226562 3.85664063 5.17578125 4.39453125 C7 6 7 6 8.54296875 7.69921875 C10.04745402 9.33298801 10.04745402 9.33298801 13 9 C13 9.99 13 10.98 13 12 C8.942959 11.46960703 7.05155434 9.42356448 4.25 6.5625 C3.45078125 5.75941406 2.6515625 4.95632812 1.828125 4.12890625 C0 2 0 2 0 0 Z " fill="#FCFAF5" transform="translate(232,125)"/>
<path d="M0 0 C6.875 3.75 6.875 3.75 8 6 C5.36 6 2.72 6 0 6 C0 4.02 0 2.04 0 0 Z " fill="#DBB967" transform="translate(277,110)"/>
<path d="M0 0 C0 1.98 0 3.96 0 6 C-2.64 6 -5.28 6 -8 6 C-2.15384615 0 -2.15384615 0 0 0 Z " fill="#DBB967" transform="translate(223,110)"/>
<path d="M0 0 C1.98 0.66 3.96 1.32 6 2 C5.34 3.65 4.68 5.3 4 7 C2.35 6.67 0.7 6.34 -1 6 C-0.67 4.02 -0.34 2.04 0 0 Z " fill="#D6A640" transform="translate(220,157)"/>
<path d="M0 0 C0.33 0 0.66 0 1 0 C1.66 4.29 2.32 8.58 3 13 C2.01 12.67 1.02 12.34 0 12 C-0.19573608 10.56359829 -0.38127816 9.12580496 -0.5625 7.6875 C-0.66691406 6.88699219 -0.77132812 6.08648437 -0.87890625 5.26171875 C-1 3 -1 3 0 0 Z " fill="#F2E6CA" transform="translate(252,125)"/>
<path d="M0 0 C4.10958767 1.45044271 7.43258745 3.51110752 11 6 C10.01 6.495 10.01 6.495 9 7 C6.3984375 6.00390625 6.3984375 6.00390625 3.375 4.5625 C2.37210937 4.08941406 1.36921875 3.61632812 0.3359375 3.12890625 C-0.43492187 2.75636719 -1.20578125 2.38382813 -2 2 C-1.34 1.34 -0.68 0.68 0 0 Z " fill="#B3995B" transform="translate(280,146)"/>
<path d="M0 0 C4.455 1.98 4.455 1.98 9 4 C9 4.33 9 4.66 9 5 C6.69 5 4.38 5 2 5 C1.34 3.35 0.68 1.7 0 0 Z " fill="#DDBC6D" transform="translate(263,111)"/>
<path d="M0 0 C0.33 0.66 0.66 1.32 1 2 C0.01 3.485 0.01 3.485 -1 5 C-4.625 5.1875 -4.625 5.1875 -8 5 C-5.44008376 2.98863724 -2.95409701 1.37154504 0 0 Z " fill="#DDBC6D" transform="translate(236,111)"/>
<path d="M0 0 C3.63 0 7.26 0 11 0 C7 3 7 3 4.375 2.8125 C2 2 2 2 0 0 Z " fill="#DAB560" transform="translate(255,105)"/>
<path d="M0 0 C3.63 0 7.26 0 11 0 C7 3 7 3 4.375 2.8125 C2 2 2 2 0 0 Z " fill="#DAB560" transform="translate(234,105)"/>
<path d="M0 0 C1.98 0 3.96 0 6 0 C6 0.66 6 1.32 6 2 C3.69 2.66 1.38 3.32 -1 4 C-0.67 2.68 -0.34 1.36 0 0 Z " fill="#AB8F4F" transform="translate(268,272)"/>
</svg>
