<?xml version="1.0" encoding="UTF-8"?>
<svg version="1.1" xmlns="http://www.w3.org/2000/svg" width="500" height="500">
<path d="M0 0 C0.88042969 0.00257812 1.76085937 0.00515625 2.66796875 0.0078125 C3.54066406 0.00523438 4.41335937 0.00265625 5.3125 0 C7.65441495 0.12231199 9.6016937 0.53180582 11.85546875 1.1328125 C14.98068708 1.29980482 14.98068708 1.29980482 17.85546875 1.1328125 C18.18546875 0.8028125 18.51546875 0.4728125 18.85546875 0.1328125 C20.64487847 0.03372467 22.43832383 0.00310871 24.23046875 0.0078125 C25.69613281 0.00394531 25.69613281 0.00394531 27.19140625 0 C29.85546875 0.1328125 29.85546875 0.1328125 32.85546875 1.1328125 C34.12390625 1.3184375 34.12390625 1.3184375 35.41796875 1.5078125 C37.85546875 2.1328125 37.85546875 2.1328125 39.85546875 5.1328125 C41.50985488 5.82939613 43.17801193 6.49378133 44.85546875 7.1328125 C47.22525177 8.58101323 48.55594221 9.44303743 49.66796875 12.00390625 C49.85546875 14.1328125 49.85546875 14.1328125 48.58984375 15.95703125 C32.42779579 31.1328125 32.42779579 31.1328125 28.85546875 31.1328125 C28.19546875 32.4528125 27.53546875 33.7728125 26.85546875 35.1328125 C28.34240234 35.26623047 28.34240234 35.26623047 29.859375 35.40234375 C34.27625888 36.03872154 37.86315096 37.77569748 41.79296875 39.8203125 C42.50171143 40.18479492 43.2104541 40.54927734 43.94067383 40.92480469 C48.99568534 43.57497095 53.56327867 46.34654596 57.85546875 50.1328125 C58.5839502 50.75929688 58.5839502 50.75929688 59.32714844 51.3984375 C73.3340593 63.50173852 84.54943616 78.143032 86.02392578 97.32421875 C86.96601407 116.46556072 82.55552539 133.08212095 69.94921875 147.89453125 C53.79105965 165.16808566 33.30530859 175.20841215 9.6484375 176.23046875 C-9.0043099 175.75022294 -25.04006493 168.15108766 -39.14453125 156.1328125 C-54.38551707 139.77857207 -60.89322973 120.86209163 -60.3828125 98.8125 C-59.73926477 83.03131476 -52.73540016 67.8015132 -42.14453125 56.1328125 C-41.54125 55.44960937 -40.93796875 54.76640625 -40.31640625 54.0625 C-29.55007068 42.55214937 -15.31789428 36.38992184 -0.14453125 33.1328125 C-2.11999202 31.01408832 -2.11999202 31.01408832 -4.80859375 29.4296875 C-8.76700493 26.83566486 -12.0972199 23.63365105 -15.51953125 20.3828125 C-16.16019531 19.78082031 -16.80085938 19.17882812 -17.4609375 18.55859375 C-19.02576747 17.08718647 -20.58566289 15.61053429 -22.14453125 14.1328125 C-21.40489407 10.62884305 -20.71283338 9.40751082 -17.70703125 7.3828125 C-17.08957031 6.95484375 -16.47210938 6.526875 -15.8359375 6.0859375 C-14.14453125 5.1328125 -14.14453125 5.1328125 -12.14453125 5.1328125 C-11.52578125 4.1428125 -11.52578125 4.1428125 -10.89453125 3.1328125 C-10.02828125 2.1428125 -10.02828125 2.1428125 -9.14453125 1.1328125 C-6.01953125 0.9453125 -6.01953125 0.9453125 -3.14453125 1.1328125 C-2.14453125 0.1328125 -2.14453125 0.1328125 0 0 Z M0.85546875 4.1328125 C1.18546875 5.1228125 1.51546875 6.1128125 1.85546875 7.1328125 C2.84546875 6.8028125 3.83546875 6.4728125 4.85546875 6.1328125 C4.52546875 5.4728125 4.19546875 4.8128125 3.85546875 4.1328125 C2.86546875 4.1328125 1.87546875 4.1328125 0.85546875 4.1328125 Z M22.85546875 4.1328125 C22.85546875 4.7928125 22.85546875 5.4528125 22.85546875 6.1328125 C23.84546875 6.4628125 24.83546875 6.7928125 25.85546875 7.1328125 C26.18546875 6.1428125 26.51546875 5.1528125 26.85546875 4.1328125 C25.53546875 4.1328125 24.21546875 4.1328125 22.85546875 4.1328125 Z M0.85546875 8.1328125 C1.85546875 10.1328125 1.85546875 10.1328125 1.85546875 10.1328125 Z M25.85546875 8.1328125 C26.85546875 10.1328125 26.85546875 10.1328125 26.85546875 10.1328125 Z M26.85546875 10.1328125 C26.85546875 11.7828125 26.85546875 13.4328125 26.85546875 15.1328125 C27.18546875 14.4728125 27.51546875 13.8128125 27.85546875 13.1328125 C28.84546875 12.8028125 29.83546875 12.4728125 30.85546875 12.1328125 C29.86546875 12.1328125 28.87546875 12.1328125 27.85546875 12.1328125 C27.52546875 11.4728125 27.19546875 10.8128125 26.85546875 10.1328125 Z M11.85546875 11.1328125 C11.52546875 11.7928125 11.19546875 12.4528125 10.85546875 13.1328125 C11.51546875 13.1328125 12.17546875 13.1328125 12.85546875 13.1328125 C12.85546875 14.7828125 12.85546875 16.4328125 12.85546875 18.1328125 C13.51546875 18.1328125 14.17546875 18.1328125 14.85546875 18.1328125 C14.85546875 16.4828125 14.85546875 14.8328125 14.85546875 13.1328125 C18.15546875 13.1328125 21.45546875 13.1328125 24.85546875 13.1328125 C24.85546875 12.8028125 24.85546875 12.4728125 24.85546875 12.1328125 C20.56546875 11.8028125 16.27546875 11.4728125 11.85546875 11.1328125 Z M36.85546875 11.1328125 C36.52546875 11.7928125 36.19546875 12.4528125 35.85546875 13.1328125 C36.51546875 13.1328125 37.17546875 13.1328125 37.85546875 13.1328125 C35.87546875 16.1028125 35.87546875 16.1028125 33.85546875 19.1328125 C35.77856297 19.09325352 35.77856297 19.09325352 37.85546875 18.1328125 C39.6392629 15.14928356 39.6392629 15.14928356 40.85546875 12.1328125 C39.53546875 11.8028125 38.21546875 11.4728125 36.85546875 11.1328125 Z M-18.14453125 12.1328125 C-18.14453125 12.4628125 -18.14453125 12.7928125 -18.14453125 13.1328125 C-16.75234375 13.225625 -16.75234375 13.225625 -15.33203125 13.3203125 C-12.14453125 14.1328125 -12.14453125 14.1328125 -10.26953125 16.6953125 C-9.71265625 17.901875 -9.71265625 17.901875 -9.14453125 19.1328125 C-8.15453125 18.8028125 -7.16453125 18.4728125 -6.14453125 18.1328125 C-6.63953125 17.7203125 -7.13453125 17.3078125 -7.64453125 16.8828125 C-9.14453125 15.1328125 -9.14453125 15.1328125 -9.14453125 11.1328125 C-12.18653171 11.1328125 -15.13985931 11.68767592 -18.14453125 12.1328125 Z M-2.14453125 12.1328125 C-1.15453125 12.6278125 -1.15453125 12.6278125 -0.14453125 13.1328125 C0.18546875 13.7928125 0.51546875 14.4528125 0.85546875 15.1328125 C0.85546875 14.1428125 0.85546875 13.1528125 0.85546875 12.1328125 C-0.13453125 12.1328125 -1.12453125 12.1328125 -2.14453125 12.1328125 Z M4.85546875 12.1328125 C4.85546875 12.4628125 4.85546875 12.7928125 4.85546875 13.1328125 C6.50546875 13.1328125 8.15546875 13.1328125 9.85546875 13.1328125 C9.85546875 12.8028125 9.85546875 12.4728125 9.85546875 12.1328125 C8.20546875 12.1328125 6.55546875 12.1328125 4.85546875 12.1328125 Z M1.85546875 18.1328125 C2.85546875 20.1328125 2.85546875 20.1328125 2.85546875 20.1328125 Z M24.85546875 18.1328125 C25.85546875 20.1328125 25.85546875 20.1328125 25.85546875 20.1328125 Z M11.85546875 19.1328125 C11.85546875 20.7828125 11.85546875 22.4328125 11.85546875 24.1328125 C12.18546875 24.1328125 12.51546875 24.1328125 12.85546875 24.1328125 C12.85546875 22.4828125 12.85546875 20.8328125 12.85546875 19.1328125 C12.52546875 19.1328125 12.19546875 19.1328125 11.85546875 19.1328125 Z M14.85546875 19.1328125 C14.85546875 20.7828125 14.85546875 22.4328125 14.85546875 24.1328125 C15.18546875 24.1328125 15.51546875 24.1328125 15.85546875 24.1328125 C15.85546875 22.4828125 15.85546875 20.8328125 15.85546875 19.1328125 C15.52546875 19.1328125 15.19546875 19.1328125 14.85546875 19.1328125 Z M2.85546875 20.1328125 C3.85546875 22.1328125 3.85546875 22.1328125 3.85546875 22.1328125 Z M23.85546875 20.1328125 C24.85546875 22.1328125 24.85546875 22.1328125 24.85546875 22.1328125 Z M-7.14453125 21.1328125 C-6.14453125 23.1328125 -6.14453125 23.1328125 -6.14453125 23.1328125 Z M33.85546875 21.1328125 C34.85546875 23.1328125 34.85546875 23.1328125 34.85546875 23.1328125 Z M3.85546875 22.1328125 C4.85546875 24.1328125 4.85546875 24.1328125 4.85546875 24.1328125 Z M22.85546875 22.1328125 C23.85546875 24.1328125 23.85546875 24.1328125 23.85546875 24.1328125 Z M10.85546875 25.1328125 C10.85546875 26.7828125 10.85546875 28.4328125 10.85546875 30.1328125 C11.18546875 30.1328125 11.51546875 30.1328125 11.85546875 30.1328125 C11.85546875 28.4828125 11.85546875 26.8328125 11.85546875 25.1328125 C11.52546875 25.1328125 11.19546875 25.1328125 10.85546875 25.1328125 Z M15.85546875 25.1328125 C15.85546875 26.7828125 15.85546875 28.4328125 15.85546875 30.1328125 C16.18546875 30.1328125 16.51546875 30.1328125 16.85546875 30.1328125 C16.85546875 28.4828125 16.85546875 26.8328125 16.85546875 25.1328125 C16.52546875 25.1328125 16.19546875 25.1328125 15.85546875 25.1328125 Z M6.85546875 29.1328125 C7.85546875 31.1328125 7.85546875 31.1328125 7.85546875 31.1328125 Z " fill="#040201" transform="translate(236.14453125,103.8671875)"/>
<path d="M0 0 C0.88042969 0.00257812 1.76085937 0.00515625 2.66796875 0.0078125 C3.54066406 0.00523438 4.41335937 0.00265625 5.3125 0 C7.65441495 0.12231199 9.6016937 0.53180582 11.85546875 1.1328125 C14.98068708 1.29980482 14.98068708 1.29980482 17.85546875 1.1328125 C18.18546875 0.8028125 18.51546875 0.4728125 18.85546875 0.1328125 C20.64487847 0.03372467 22.43832383 0.00310871 24.23046875 0.0078125 C25.69613281 0.00394531 25.69613281 0.00394531 27.19140625 0 C29.85546875 0.1328125 29.85546875 0.1328125 32.85546875 1.1328125 C34.12390625 1.3184375 34.12390625 1.3184375 35.41796875 1.5078125 C37.85546875 2.1328125 37.85546875 2.1328125 39.85546875 5.1328125 C41.50985488 5.82939613 43.17801193 6.49378133 44.85546875 7.1328125 C47.22525177 8.58101323 48.55594221 9.44303743 49.66796875 12.00390625 C49.85546875 14.1328125 49.85546875 14.1328125 48.58984375 15.95703125 C32.42779579 31.1328125 32.42779579 31.1328125 28.85546875 31.1328125 C28.19546875 32.4528125 27.53546875 33.7728125 26.85546875 35.1328125 C28.34240234 35.26623047 28.34240234 35.26623047 29.859375 35.40234375 C34.27682904 36.03880369 37.86207816 37.77690886 41.79296875 39.8203125 C42.84303101 40.35615967 42.84303101 40.35615967 43.91430664 40.90283203 C56.52783664 47.47754829 56.52783664 47.47754829 58.85546875 52.1328125 C56.78852507 51.10873586 54.73529022 50.06880437 52.69921875 48.984375 C34.79877755 39.61647744 15.10866705 37.12581038 -4.390625 43.1328125 C-22.18464439 49.50428705 -35.15571833 60.68089519 -44.14453125 77.1328125 C-45.78726346 80.73937755 -47.07140484 84.32054576 -48.14453125 88.1328125 C-48.36753906 88.88949219 -48.59054688 89.64617187 -48.8203125 90.42578125 C-53.1998396 107.25865754 -48.67080133 124.64689492 -40.26953125 139.3828125 C-30.6406082 154.64282726 -16.03971779 163.54243728 1.12719727 168.52856445 C5.92159666 169.5904113 10.6497868 169.61911837 15.54296875 169.5703125 C16.59226562 169.56418945 17.6415625 169.55806641 18.72265625 169.55175781 C30.59327371 169.31449147 40.33933895 166.70017533 50.85546875 161.1328125 C51.51546875 161.4628125 52.17546875 161.7928125 52.85546875 162.1328125 C38.3985526 173.00351689 19.30024797 177.7661832 1.30859375 175.7578125 C-19.15505514 172.05398465 -35.77437511 161.96688495 -48.14453125 145.1328125 C-59.19363814 127.81522774 -63.04837911 107.64457692 -59.14453125 87.4453125 C-56.05195313 76.02319613 -50.09095628 64.8879445 -42.14453125 56.1328125 C-41.54125 55.44960937 -40.93796875 54.76640625 -40.31640625 54.0625 C-29.55007068 42.55214937 -15.31789428 36.38992184 -0.14453125 33.1328125 C-2.11999202 31.01408832 -2.11999202 31.01408832 -4.80859375 29.4296875 C-8.76700493 26.83566486 -12.0972199 23.63365105 -15.51953125 20.3828125 C-16.16019531 19.78082031 -16.80085938 19.17882812 -17.4609375 18.55859375 C-19.02576747 17.08718647 -20.58566289 15.61053429 -22.14453125 14.1328125 C-21.40489407 10.62884305 -20.71283338 9.40751082 -17.70703125 7.3828125 C-17.08957031 6.95484375 -16.47210938 6.526875 -15.8359375 6.0859375 C-14.14453125 5.1328125 -14.14453125 5.1328125 -12.14453125 5.1328125 C-11.52578125 4.1428125 -11.52578125 4.1428125 -10.89453125 3.1328125 C-10.02828125 2.1428125 -10.02828125 2.1428125 -9.14453125 1.1328125 C-6.01953125 0.9453125 -6.01953125 0.9453125 -3.14453125 1.1328125 C-2.14453125 0.1328125 -2.14453125 0.1328125 0 0 Z M0.85546875 4.1328125 C1.18546875 5.1228125 1.51546875 6.1128125 1.85546875 7.1328125 C2.84546875 6.8028125 3.83546875 6.4728125 4.85546875 6.1328125 C4.52546875 5.4728125 4.19546875 4.8128125 3.85546875 4.1328125 C2.86546875 4.1328125 1.87546875 4.1328125 0.85546875 4.1328125 Z M22.85546875 4.1328125 C22.85546875 4.7928125 22.85546875 5.4528125 22.85546875 6.1328125 C23.84546875 6.4628125 24.83546875 6.7928125 25.85546875 7.1328125 C26.18546875 6.1428125 26.51546875 5.1528125 26.85546875 4.1328125 C25.53546875 4.1328125 24.21546875 4.1328125 22.85546875 4.1328125 Z M0.85546875 8.1328125 C1.85546875 10.1328125 1.85546875 10.1328125 1.85546875 10.1328125 Z M25.85546875 8.1328125 C26.85546875 10.1328125 26.85546875 10.1328125 26.85546875 10.1328125 Z M26.85546875 10.1328125 C26.85546875 11.7828125 26.85546875 13.4328125 26.85546875 15.1328125 C27.18546875 14.4728125 27.51546875 13.8128125 27.85546875 13.1328125 C28.84546875 12.8028125 29.83546875 12.4728125 30.85546875 12.1328125 C29.86546875 12.1328125 28.87546875 12.1328125 27.85546875 12.1328125 C27.52546875 11.4728125 27.19546875 10.8128125 26.85546875 10.1328125 Z M11.85546875 11.1328125 C11.52546875 11.7928125 11.19546875 12.4528125 10.85546875 13.1328125 C11.51546875 13.1328125 12.17546875 13.1328125 12.85546875 13.1328125 C12.85546875 14.7828125 12.85546875 16.4328125 12.85546875 18.1328125 C13.51546875 18.1328125 14.17546875 18.1328125 14.85546875 18.1328125 C14.85546875 16.4828125 14.85546875 14.8328125 14.85546875 13.1328125 C18.15546875 13.1328125 21.45546875 13.1328125 24.85546875 13.1328125 C24.85546875 12.8028125 24.85546875 12.4728125 24.85546875 12.1328125 C20.56546875 11.8028125 16.27546875 11.4728125 11.85546875 11.1328125 Z M36.85546875 11.1328125 C36.52546875 11.7928125 36.19546875 12.4528125 35.85546875 13.1328125 C36.51546875 13.1328125 37.17546875 13.1328125 37.85546875 13.1328125 C35.87546875 16.1028125 35.87546875 16.1028125 33.85546875 19.1328125 C35.77856297 19.09325352 35.77856297 19.09325352 37.85546875 18.1328125 C39.6392629 15.14928356 39.6392629 15.14928356 40.85546875 12.1328125 C39.53546875 11.8028125 38.21546875 11.4728125 36.85546875 11.1328125 Z M-18.14453125 12.1328125 C-18.14453125 12.4628125 -18.14453125 12.7928125 -18.14453125 13.1328125 C-16.75234375 13.225625 -16.75234375 13.225625 -15.33203125 13.3203125 C-12.14453125 14.1328125 -12.14453125 14.1328125 -10.26953125 16.6953125 C-9.71265625 17.901875 -9.71265625 17.901875 -9.14453125 19.1328125 C-8.15453125 18.8028125 -7.16453125 18.4728125 -6.14453125 18.1328125 C-6.63953125 17.7203125 -7.13453125 17.3078125 -7.64453125 16.8828125 C-9.14453125 15.1328125 -9.14453125 15.1328125 -9.14453125 11.1328125 C-12.18653171 11.1328125 -15.13985931 11.68767592 -18.14453125 12.1328125 Z M-2.14453125 12.1328125 C-1.15453125 12.6278125 -1.15453125 12.6278125 -0.14453125 13.1328125 C0.18546875 13.7928125 0.51546875 14.4528125 0.85546875 15.1328125 C0.85546875 14.1428125 0.85546875 13.1528125 0.85546875 12.1328125 C-0.13453125 12.1328125 -1.12453125 12.1328125 -2.14453125 12.1328125 Z M4.85546875 12.1328125 C4.85546875 12.4628125 4.85546875 12.7928125 4.85546875 13.1328125 C6.50546875 13.1328125 8.15546875 13.1328125 9.85546875 13.1328125 C9.85546875 12.8028125 9.85546875 12.4728125 9.85546875 12.1328125 C8.20546875 12.1328125 6.55546875 12.1328125 4.85546875 12.1328125 Z M1.85546875 18.1328125 C2.85546875 20.1328125 2.85546875 20.1328125 2.85546875 20.1328125 Z M24.85546875 18.1328125 C25.85546875 20.1328125 25.85546875 20.1328125 25.85546875 20.1328125 Z M11.85546875 19.1328125 C11.85546875 20.7828125 11.85546875 22.4328125 11.85546875 24.1328125 C12.18546875 24.1328125 12.51546875 24.1328125 12.85546875 24.1328125 C12.85546875 22.4828125 12.85546875 20.8328125 12.85546875 19.1328125 C12.52546875 19.1328125 12.19546875 19.1328125 11.85546875 19.1328125 Z M14.85546875 19.1328125 C14.85546875 20.7828125 14.85546875 22.4328125 14.85546875 24.1328125 C15.18546875 24.1328125 15.51546875 24.1328125 15.85546875 24.1328125 C15.85546875 22.4828125 15.85546875 20.8328125 15.85546875 19.1328125 C15.52546875 19.1328125 15.19546875 19.1328125 14.85546875 19.1328125 Z M2.85546875 20.1328125 C3.85546875 22.1328125 3.85546875 22.1328125 3.85546875 22.1328125 Z M23.85546875 20.1328125 C24.85546875 22.1328125 24.85546875 22.1328125 24.85546875 22.1328125 Z M-7.14453125 21.1328125 C-6.14453125 23.1328125 -6.14453125 23.1328125 -6.14453125 23.1328125 Z M33.85546875 21.1328125 C34.85546875 23.1328125 34.85546875 23.1328125 34.85546875 23.1328125 Z M3.85546875 22.1328125 C4.85546875 24.1328125 4.85546875 24.1328125 4.85546875 24.1328125 Z M22.85546875 22.1328125 C23.85546875 24.1328125 23.85546875 24.1328125 23.85546875 24.1328125 Z M10.85546875 25.1328125 C10.85546875 26.7828125 10.85546875 28.4328125 10.85546875 30.1328125 C11.18546875 30.1328125 11.51546875 30.1328125 11.85546875 30.1328125 C11.85546875 28.4828125 11.85546875 26.8328125 11.85546875 25.1328125 C11.52546875 25.1328125 11.19546875 25.1328125 10.85546875 25.1328125 Z M15.85546875 25.1328125 C15.85546875 26.7828125 15.85546875 28.4328125 15.85546875 30.1328125 C16.18546875 30.1328125 16.51546875 30.1328125 16.85546875 30.1328125 C16.85546875 28.4828125 16.85546875 26.8328125 16.85546875 25.1328125 C16.52546875 25.1328125 16.19546875 25.1328125 15.85546875 25.1328125 Z M6.85546875 29.1328125 C7.85546875 31.1328125 7.85546875 31.1328125 7.85546875 31.1328125 Z " fill="#EDC87C" transform="translate(236.14453125,103.8671875)"/>
<path d="M0 0 C0.88042969 0.00257812 1.76085937 0.00515625 2.66796875 0.0078125 C3.54066406 0.00523438 4.41335937 0.00265625 5.3125 0 C7.65441495 0.12231199 9.6016937 0.53180582 11.85546875 1.1328125 C14.98068708 1.29980482 14.98068708 1.29980482 17.85546875 1.1328125 C18.18546875 0.8028125 18.51546875 0.4728125 18.85546875 0.1328125 C20.64487847 0.03372467 22.43832383 0.00310871 24.23046875 0.0078125 C25.69613281 0.00394531 25.69613281 0.00394531 27.19140625 0 C29.85546875 0.1328125 29.85546875 0.1328125 32.85546875 1.1328125 C34.12390625 1.3184375 34.12390625 1.3184375 35.41796875 1.5078125 C37.85546875 2.1328125 37.85546875 2.1328125 39.85546875 5.1328125 C41.50985488 5.82939613 43.17801193 6.49378133 44.85546875 7.1328125 C47.22525177 8.58101323 48.55594221 9.44303743 49.66796875 12.00390625 C49.85546875 14.1328125 49.85546875 14.1328125 48.58984375 15.95703125 C32.42779579 31.1328125 32.42779579 31.1328125 28.85546875 31.1328125 C28.19546875 32.4528125 27.53546875 33.7728125 26.85546875 35.1328125 C28.34240234 35.26623047 28.34240234 35.26623047 29.859375 35.40234375 C34.27682904 36.03880369 37.86207816 37.77690886 41.79296875 39.8203125 C42.84303101 40.35615967 42.84303101 40.35615967 43.91430664 40.90283203 C56.52783664 47.47754829 56.52783664 47.47754829 58.85546875 52.1328125 C56.78852507 51.10873586 54.73529022 50.06880437 52.69921875 48.984375 C34.19129699 39.29856261 14.74737195 37.61807961 -5.39453125 43.2578125 C-6.75578125 43.6909375 -6.75578125 43.6909375 -8.14453125 44.1328125 C-8.14453125 43.4728125 -8.14453125 42.8128125 -8.14453125 42.1328125 C-5.17453125 41.6378125 -5.17453125 41.6378125 -2.14453125 41.1328125 C-2.14453125 40.4728125 -2.14453125 39.8128125 -2.14453125 39.1328125 C-0.16453125 39.1328125 1.81546875 39.1328125 3.85546875 39.1328125 C3.52546875 38.1428125 3.19546875 37.1528125 2.85546875 36.1328125 C1.86546875 36.1328125 0.87546875 36.1328125 -0.14453125 36.1328125 C-2.33203125 35.1328125 -2.33203125 35.1328125 -4.14453125 34.1328125 C-2.16453125 33.6378125 -2.16453125 33.6378125 -0.14453125 33.1328125 C-2.11999202 31.01408832 -2.11999202 31.01408832 -4.80859375 29.4296875 C-8.76700493 26.83566486 -12.0972199 23.63365105 -15.51953125 20.3828125 C-16.16019531 19.78082031 -16.80085937 19.17882812 -17.4609375 18.55859375 C-19.02576747 17.08718647 -20.58566289 15.61053429 -22.14453125 14.1328125 C-21.40489407 10.62884305 -20.71283338 9.40751082 -17.70703125 7.3828125 C-17.08957031 6.95484375 -16.47210938 6.526875 -15.8359375 6.0859375 C-14.14453125 5.1328125 -14.14453125 5.1328125 -12.14453125 5.1328125 C-11.73203125 4.4728125 -11.31953125 3.8128125 -10.89453125 3.1328125 C-10.31703125 2.4728125 -9.73953125 1.8128125 -9.14453125 1.1328125 C-6.01953125 0.9453125 -6.01953125 0.9453125 -3.14453125 1.1328125 C-2.14453125 0.1328125 -2.14453125 0.1328125 0 0 Z M0.85546875 4.1328125 C1.18546875 5.1228125 1.51546875 6.1128125 1.85546875 7.1328125 C2.84546875 6.8028125 3.83546875 6.4728125 4.85546875 6.1328125 C4.52546875 5.4728125 4.19546875 4.8128125 3.85546875 4.1328125 C2.86546875 4.1328125 1.87546875 4.1328125 0.85546875 4.1328125 Z M22.85546875 4.1328125 C22.85546875 4.7928125 22.85546875 5.4528125 22.85546875 6.1328125 C23.84546875 6.4628125 24.83546875 6.7928125 25.85546875 7.1328125 C26.18546875 6.1428125 26.51546875 5.1528125 26.85546875 4.1328125 C25.53546875 4.1328125 24.21546875 4.1328125 22.85546875 4.1328125 Z M0.85546875 8.1328125 C1.85546875 10.1328125 1.85546875 10.1328125 1.85546875 10.1328125 Z M25.85546875 8.1328125 C26.85546875 10.1328125 26.85546875 10.1328125 26.85546875 10.1328125 Z M26.85546875 10.1328125 C26.85546875 11.7828125 26.85546875 13.4328125 26.85546875 15.1328125 C27.18546875 14.4728125 27.51546875 13.8128125 27.85546875 13.1328125 C28.84546875 12.8028125 29.83546875 12.4728125 30.85546875 12.1328125 C29.86546875 12.1328125 28.87546875 12.1328125 27.85546875 12.1328125 C27.52546875 11.4728125 27.19546875 10.8128125 26.85546875 10.1328125 Z M11.85546875 11.1328125 C11.52546875 11.7928125 11.19546875 12.4528125 10.85546875 13.1328125 C11.51546875 13.1328125 12.17546875 13.1328125 12.85546875 13.1328125 C12.85546875 14.7828125 12.85546875 16.4328125 12.85546875 18.1328125 C13.51546875 18.1328125 14.17546875 18.1328125 14.85546875 18.1328125 C14.85546875 16.4828125 14.85546875 14.8328125 14.85546875 13.1328125 C18.15546875 13.1328125 21.45546875 13.1328125 24.85546875 13.1328125 C24.85546875 12.8028125 24.85546875 12.4728125 24.85546875 12.1328125 C20.56546875 11.8028125 16.27546875 11.4728125 11.85546875 11.1328125 Z M36.85546875 11.1328125 C36.52546875 11.7928125 36.19546875 12.4528125 35.85546875 13.1328125 C36.51546875 13.1328125 37.17546875 13.1328125 37.85546875 13.1328125 C35.87546875 16.1028125 35.87546875 16.1028125 33.85546875 19.1328125 C35.77856297 19.09325352 35.77856297 19.09325352 37.85546875 18.1328125 C39.6392629 15.14928356 39.6392629 15.14928356 40.85546875 12.1328125 C39.53546875 11.8028125 38.21546875 11.4728125 36.85546875 11.1328125 Z M-18.14453125 12.1328125 C-18.14453125 12.4628125 -18.14453125 12.7928125 -18.14453125 13.1328125 C-16.75234375 13.225625 -16.75234375 13.225625 -15.33203125 13.3203125 C-12.14453125 14.1328125 -12.14453125 14.1328125 -10.26953125 16.6953125 C-9.71265625 17.901875 -9.71265625 17.901875 -9.14453125 19.1328125 C-8.15453125 18.8028125 -7.16453125 18.4728125 -6.14453125 18.1328125 C-6.63953125 17.7203125 -7.13453125 17.3078125 -7.64453125 16.8828125 C-9.14453125 15.1328125 -9.14453125 15.1328125 -9.14453125 11.1328125 C-12.18653171 11.1328125 -15.13985931 11.68767592 -18.14453125 12.1328125 Z M-2.14453125 12.1328125 C-1.15453125 12.6278125 -1.15453125 12.6278125 -0.14453125 13.1328125 C0.18546875 13.7928125 0.51546875 14.4528125 0.85546875 15.1328125 C0.85546875 14.1428125 0.85546875 13.1528125 0.85546875 12.1328125 C-0.13453125 12.1328125 -1.12453125 12.1328125 -2.14453125 12.1328125 Z M4.85546875 12.1328125 C4.85546875 12.4628125 4.85546875 12.7928125 4.85546875 13.1328125 C6.50546875 13.1328125 8.15546875 13.1328125 9.85546875 13.1328125 C9.85546875 12.8028125 9.85546875 12.4728125 9.85546875 12.1328125 C8.20546875 12.1328125 6.55546875 12.1328125 4.85546875 12.1328125 Z M1.85546875 18.1328125 C2.85546875 20.1328125 2.85546875 20.1328125 2.85546875 20.1328125 Z M24.85546875 18.1328125 C25.85546875 20.1328125 25.85546875 20.1328125 25.85546875 20.1328125 Z M11.85546875 19.1328125 C11.85546875 20.7828125 11.85546875 22.4328125 11.85546875 24.1328125 C12.18546875 24.1328125 12.51546875 24.1328125 12.85546875 24.1328125 C12.85546875 22.4828125 12.85546875 20.8328125 12.85546875 19.1328125 C12.52546875 19.1328125 12.19546875 19.1328125 11.85546875 19.1328125 Z M14.85546875 19.1328125 C14.85546875 20.7828125 14.85546875 22.4328125 14.85546875 24.1328125 C15.18546875 24.1328125 15.51546875 24.1328125 15.85546875 24.1328125 C15.85546875 22.4828125 15.85546875 20.8328125 15.85546875 19.1328125 C15.52546875 19.1328125 15.19546875 19.1328125 14.85546875 19.1328125 Z M2.85546875 20.1328125 C3.85546875 22.1328125 3.85546875 22.1328125 3.85546875 22.1328125 Z M23.85546875 20.1328125 C24.85546875 22.1328125 24.85546875 22.1328125 24.85546875 22.1328125 Z M-7.14453125 21.1328125 C-6.14453125 23.1328125 -6.14453125 23.1328125 -6.14453125 23.1328125 Z M33.85546875 21.1328125 C34.85546875 23.1328125 34.85546875 23.1328125 34.85546875 23.1328125 Z M3.85546875 22.1328125 C4.85546875 24.1328125 4.85546875 24.1328125 4.85546875 24.1328125 Z M22.85546875 22.1328125 C23.85546875 24.1328125 23.85546875 24.1328125 23.85546875 24.1328125 Z M10.85546875 25.1328125 C10.85546875 26.7828125 10.85546875 28.4328125 10.85546875 30.1328125 C11.18546875 30.1328125 11.51546875 30.1328125 11.85546875 30.1328125 C11.85546875 28.4828125 11.85546875 26.8328125 11.85546875 25.1328125 C11.52546875 25.1328125 11.19546875 25.1328125 10.85546875 25.1328125 Z M15.85546875 25.1328125 C15.85546875 26.7828125 15.85546875 28.4328125 15.85546875 30.1328125 C16.18546875 30.1328125 16.51546875 30.1328125 16.85546875 30.1328125 C16.85546875 28.4828125 16.85546875 26.8328125 16.85546875 25.1328125 C16.52546875 25.1328125 16.19546875 25.1328125 15.85546875 25.1328125 Z M6.85546875 29.1328125 C7.85546875 31.1328125 7.85546875 31.1328125 7.85546875 31.1328125 Z " fill="#D5B058" transform="translate(236.14453125,103.8671875)"/>
<path d="M0 0 C12.63608268 9.48175595 22.55962771 22.09336402 25.62890625 37.97265625 C25.90810814 41.60192327 25.90852679 45.20926621 25.87890625 48.84765625 C25.89050781 50.26111328 25.89050781 50.26111328 25.90234375 51.703125 C25.87678066 60.94418244 24.26181817 68.67286053 20.06640625 76.91015625 C19.71489502 77.60109375 19.36338379 78.29203125 19.0012207 79.00390625 C11.49378057 93.1807621 -1.1300598 103.11074528 -16.37109375 107.97265625 C-19.09223612 108.53449458 -21.58943476 108.81217592 -24.37109375 108.97265625 C-21.27445244 106.90822871 -18.18284784 105.4769065 -14.80859375 103.91015625 C-0.36296602 96.86938306 8.24657296 85.79827424 13.68359375 70.85546875 C17.87902479 58.06113772 17.59735326 41.07534047 11.62890625 28.97265625 C10.94054687 27.53212891 10.94054687 27.53212891 10.23828125 26.0625 C3.19810031 12.29709358 -7.75330612 3.2326133 -22.37109375 -2.02734375 C-28.00827627 -3.68840267 -32.95086261 -4.3215541 -38.80859375 -4.21484375 C-39.91738892 -4.20517578 -39.91738892 -4.20517578 -41.04858398 -4.1953125 C-46.21091857 -4.1226755 -51.25783586 -3.77109035 -56.37109375 -3.02734375 C-54.97652822 -5.81647481 -53.58260873 -6.0357474 -50.68359375 -7.15234375 C-33.77859041 -12.53120845 -14.56019886 -9.98231974 0 0 Z " fill="#DFBF6C" transform="translate(291.37109375,158.02734375)"/>
<path d="M0 0 C1.134375 0.598125 2.26875 1.19625 3.4375 1.8125 C15.50578369 8.61609618 22.74723074 22.28947615 27 35 C31.83554209 52.37182509 29.4550083 69.90863075 20.94921875 85.671875 C15.12341727 95.61893484 7.22786351 103.20380323 -2 110 C-2.66 109.67 -3.32 109.34 -4 109 C-4.0625 106.4375 -4.0625 106.4375 -3 103 C-0.93981336 101.11074588 1.27065235 99.53542673 3.52734375 97.88671875 C10.12754703 92.85054468 14.36013483 86.92624121 17.875 79.5 C18.30449951 78.59314453 18.30449951 78.59314453 18.74267578 77.66796875 C24.44153955 64.86522969 25.58937014 47.6931252 21.375 34.3125 C20.63644481 32.51886597 19.84528741 30.74587399 19 29 C18.36384766 27.60974609 18.36384766 27.60974609 17.71484375 26.19140625 C11.07406021 12.85434516 0.45197281 3.06965245 -13.48046875 -2.17578125 C-14.31191406 -2.44777344 -15.14335937 -2.71976563 -16 -3 C-17.03382813 -3.35707031 -18.06765625 -3.71414062 -19.1328125 -4.08203125 C-24.04185295 -5.24730853 -28.65834871 -5.38187865 -33.6875 -5.375 C-34.6583252 -5.37628906 -35.62915039 -5.37757813 -36.62939453 -5.37890625 C-44.07573651 -5.26938292 -50.20645634 -4.21045101 -57 -1 C-55.02 -1 -53.04 -1 -51 -1 C-53.98878319 1.54600049 -56.16578243 2.34537749 -60 3 C-63.15903366 4.00164482 -64.7423526 4.71819816 -67 7.1875 C-67.99 8.0846875 -67.99 8.0846875 -69 9 C-71.625 8.61328125 -71.625 8.61328125 -74 8 C-73.38234267 3.25233541 -72.76848878 -0.82165054 -70.125 -4.875 C-50.75461492 -18.04686186 -17.70447507 -14.09131689 0 0 Z " fill="#0B0603" transform="translate(293,155)"/>
<path d="M0 0 C4.95 0 9.9 0 15 0 C18.8065641 7.1517265 21.82076788 14.44873787 24.67602539 22.01708984 C25.86153172 25.78956609 25.86153172 25.78956609 28 29 C33.445 14.645 33.445 14.645 39 0 C43.95 0 48.9 0 54 0 C52.68 0.99 51.36 1.98 50 3 C49.42674021 4.90047386 49.42674021 4.90047386 49.54589844 7.01245117 C49.54620056 7.81305466 49.54650269 8.61365814 49.54681396 9.43852234 C49.56745911 10.29798965 49.58810425 11.15745697 49.609375 12.04296875 C49.61786469 13.36836418 49.61786469 13.36836418 49.62652588 14.72053528 C49.64892133 17.54340743 49.69912273 20.36501138 49.75 23.1875 C49.77006094 25.10089313 49.78831242 27.01430615 49.8046875 28.92773438 C49.84879643 33.61897842 49.91784515 38.30927418 50 43 C51.32 43.33 52.64 43.66 54 44 C54 44.33 54 44.66 54 45 C47.4 45 40.8 45 34 45 C35.32 44.01 36.64 43.02 38 42 C38.35660924 39.42570308 38.46837086 37.2737159 38.390625 34.70703125 C38.38063477 33.41514893 38.37064453 32.1232666 38.36035156 30.79223633 C38.32393555 29.14892334 38.28751953 27.50561035 38.25 25.8125 C38.1675 20.594375 38.085 15.37625 38 10 C33.71 21.22 29.42 32.44 25 44 C24.01 44 23.02 44 22 44 C14.575 26.18 14.575 26.18 7 8 C6.896875 13.3625 6.79375 18.725 6.6875 24.25 C6.64197998 25.93641602 6.59645996 27.62283203 6.54956055 29.36035156 C6.53495146 30.70375583 6.52221177 32.04718228 6.51171875 33.390625 C6.48613892 34.08269043 6.46055908 34.77475586 6.4342041 35.48779297 C6.37745967 37.77109216 6.37745967 37.77109216 7 41 C9.475 42.98 9.475 42.98 12 45 C7.71 45 3.42 45 -1 45 C-0.67 44.34 -0.34 43.68 0 43 C0.99 43 1.98 43 3 43 C3.07410727 37.35834639 3.12858167 31.71697553 3.16479492 26.07495117 C3.1798898 24.15530462 3.20036773 22.2356926 3.22631836 20.31616211 C3.26267109 17.55834436 3.27971912 14.8009822 3.29296875 12.04296875 C3.30845261 11.18350143 3.32393646 10.32403412 3.33988953 9.43852234 C3.34011612 8.63791885 3.34034271 7.83731537 3.34057617 7.01245117 C3.34723801 6.3085173 3.35389984 5.60458344 3.36076355 4.87931824 C3.09221783 2.5310962 3.09221783 2.5310962 0 0 Z " fill="#CFAC56" transform="translate(197,188)"/>
<path d="M0 0 C0.99 0.33 1.98 0.66 3 1 C3.66 0.01 4.32 -0.98 5 -2 C5 2.95 5 7.9 5 13 C4.34 13 3.68 13 3 13 C2.51171875 11.01432292 2.0234375 9.02864583 1.53515625 7.04296875 C0.73018692 3.27077406 0.73018692 3.27077406 -2 0.8125 C-6.09621797 -0.29689237 -9.79338658 -0.71130009 -14 0 C-18.63388582 3.02209945 -20.14728968 6.94939358 -21.49609375 12.12109375 C-23.18952595 21.79597383 -22.70621088 31.15559053 -17.375 39.5625 C-13.62353961 41.83312076 -10.32907857 41.25465168 -6 41 C-6 36.38 -6 31.76 -6 27 C-7.65 26.34 -9.3 25.68 -11 25 C-11 24.67 -11 24.34 -11 24 C-4.73 24 1.54 24 8 24 C7.67 24.66 7.34 25.32 7 26 C6.76725791 28.87910588 6.58027243 31.74146495 6.4375 34.625 C6.37272461 35.82769531 6.37272461 35.82769531 6.30664062 37.0546875 C6.20048543 39.0362511 6.09973145 41.01810271 6 43 C5.34 43 4.68 43 4 43 C4 42.01 4 41.02 4 40 C3.31035156 40.28875 2.62070312 40.5775 1.91015625 40.875 C-7.00898497 44.39861134 -13.89044253 45.36989599 -22.9921875 41.9765625 C-28.24749244 39.42048033 -30.77915641 35.21898244 -33 30 C-34.94916458 23.63454644 -35.22926273 15.83134694 -32.5 9.6875 C-29.33230178 4.30690621 -24.6343281 0.28913928 -19.0625 -2.4375 C-11.81454365 -3.76875729 -6.58804767 -3.29402384 0 0 Z " fill="#D2AD55" transform="translate(290,190)"/>
<path d="M0 0 C2.97 0.495 2.97 0.495 6 1 C6 1.33 6 1.66 6 2 C4.02 2 2.04 2 0 2 C0.37125 2.5775 0.7425 3.155 1.125 3.75 C2 6 2 6 1.3125 8.125 C0 10 0 10 -3 12 C-0.89091074 16.10717382 0.9866485 17.80221227 5 20 C6.3303125 21.0828125 6.3303125 21.0828125 7.6875 22.1875 C9.77265784 24.20562722 9.77265784 24.20562722 12 24 C12.33 22.68 12.66 21.36 13 20 C13.66 20 14.32 20 15 20 C15 21.32 15 22.64 15 24 C15.66 24.33 16.32 24.66 17 25 C16.01 26.65 15.02 28.3 14 30 C15.81048693 31.81048693 18.31077312 31.13641744 20.72583008 31.18798828 C38.30949064 31.6424759 55.10379369 37.70361724 68 50 C64.68788267 50 63.9160574 49.50806626 61.1875 47.8125 C43.95750565 37.91441814 24.74055924 36.78638985 5.703125 41.578125 C4.12599515 42.01972136 2.56068936 42.50341702 1 43 C1 42.34 1 41.68 1 41 C3.97 40.505 3.97 40.505 7 40 C7 39.34 7 38.68 7 38 C8.98 38 10.96 38 13 38 C12.67 37.01 12.34 36.02 12 35 C11.01 35 10.02 35 9 35 C6.8125 34 6.8125 34 5 33 C6.98 32.505 6.98 32.505 9 32 C7.02453923 29.88127582 7.02453923 29.88127582 4.3359375 28.296875 C0.37752632 25.70285236 -2.95268865 22.50083855 -6.375 19.25 C-7.01566406 18.64800781 -7.65632812 18.04601562 -8.31640625 17.42578125 C-9.88123622 15.95437397 -11.44113164 14.47772179 -13 13 C-12.26036282 9.49603055 -11.56830213 8.27469832 -8.5625 6.25 C-7.94503906 5.82203125 -7.32757813 5.3940625 -6.69140625 4.953125 C-5 4 -5 4 -3 4 C-1.36323743 2.0399719 -1.36323743 2.0399719 0 0 Z M2 20 C3 22 3 22 3 22 Z M13 21 C14 23 14 23 14 23 Z M17 23 C19 24 19 24 19 24 Z " fill="#D3B059" transform="translate(227,105)"/>
<path d="M0 0 C3.96 0 7.92 0 12 0 C12.33 1.65 12.66 3.3 13 5 C13.99 6.485 13.99 6.485 15 8 C15.309375 7.05125 15.61875 6.1025 15.9375 5.125 C17 2 17 2 18 0 C21.96 0 25.92 0 30 0 C30 7.59 30 15.18 30 23 C26.04 23.495 26.04 23.495 22 24 C21.34 23.34 20.68 22.68 20 22 C20.33 21.67 20.66 21.34 21 21 C21.07205511 19.31391034 21.08386068 17.62499341 21.0625 15.9375 C21.041875 14.308125 21.02125 12.67875 21 11 C19.02 14.96 17.04 18.92 15 23 C12.2447914 20.2447914 11.2659514 18.77071195 9.8125 15.3125 C9.46832031 14.50425781 9.12414062 13.69601562 8.76953125 12.86328125 C8.51558594 12.24839844 8.26164062 11.63351562 8 11 C7.97301811 12.62490954 7.95361243 14.24994633 7.9375 15.875 C7.92589844 16.77992188 7.91429688 17.68484375 7.90234375 18.6171875 C7.83750743 21.0168585 7.83750743 21.0168585 9 23 C5.04 23.495 5.04 23.495 1 24 C-0.25248502 21.49502996 -0.11374406 19.79146726 -0.09765625 16.9921875 C-0.09443359 16.00605469 -0.09121094 15.01992188 -0.08789062 14.00390625 C-0.07951172 12.97136719 -0.07113281 11.93882812 -0.0625 10.875 C-0.05798828 9.83472656 -0.05347656 8.79445313 -0.04882812 7.72265625 C-0.03701967 5.14841313 -0.01908385 2.57419947 0 0 Z " fill="#D7B252" transform="translate(89,293)"/>
<path d="M0 0 C3.63 0 7.26 0 11 0 C11.99 2.64 12.98 5.28 14 8 C14.99 5.36 15.98 2.72 17 0 C20.96 0 24.92 0 29 0 C29 7.59 29 15.18 29 23 C26.69 23.33 24.38 23.66 22 24 C20 22 20 22 19.8046875 19.3984375 C19.90234375 15.19921875 19.90234375 15.19921875 20 11 C18.02 14.96 16.04 18.92 14 23 C11.14557422 19.19409895 9.74627053 16.32409846 8 12 C8 15.63 8 19.26 8 23 C2.25 24.125 2.25 24.125 0 23 C0 15.41 0 7.82 0 0 Z " fill="#D3B161" transform="translate(348,293)"/>
<path d="M0 0 C-0.56371414 3.26954202 -1.49962266 4.82575883 -4 7 C-4.99 6.34 -5.98 5.68 -7 5 C-12.33468429 4.61535105 -12.33468429 4.61535105 -17 7 C-17.5 10 -17.5 10 -17 13 C-13.91111478 15.05925681 -13.29064073 15.2390374 -9.8125 15.125 C-8.554375 15.08375 -7.29625 15.0425 -6 15 C-7.98 14.67 -9.96 14.34 -12 14 C-12 12.02 -12 10.04 -12 8 C-7.05 8 -2.1 8 3 8 C3 11.63 3 15.26 3 19 C-3.79725655 21.58943107 -10.13861935 23.70398909 -17.2734375 21.203125 C-20.94852707 19.47835372 -22.69359911 18.45960133 -25 15 C-25.54622138 11.60767777 -25.53136064 8.39420164 -25 5 C-18.60503821 -3.77023331 -9.33096719 -3.1103224 0 0 Z " fill="#D1B161" transform="translate(313,295)"/>
<path d="M0 0 C2.97 0 5.94 0 9 0 C9 2.83967231 8.59732819 5.23735711 8 8 C11.3 8 14.6 8 18 8 C17.67 5.36 17.34 2.72 17 0 C19.97 0 22.94 0 26 0 C27.2263757 2.45275141 27.11415314 4.0505781 27.09765625 6.7890625 C27.09443359 7.73007812 27.09121094 8.67109375 27.08789062 9.640625 C27.07951172 10.62546875 27.07113281 11.6103125 27.0625 12.625 C27.05798828 13.61757813 27.05347656 14.61015625 27.04882812 15.6328125 C27.03702145 18.0886016 27.020554 20.54427104 27 23 C24.23749964 24.38125018 22.05268901 24.19079306 19 24 C18.34 23.34 17.68 22.68 17 22 C17.03287583 19.27130593 17.56397771 16.7033382 18 14 C13.545 14.495 13.545 14.495 9 15 C8.79029441 19.14093698 8.79029441 19.14093698 10 23 C7.03 23.33 4.06 23.66 1 24 C-0.25248502 21.49502996 -0.11374406 19.79146726 -0.09765625 16.9921875 C-0.09443359 16.00605469 -0.09121094 15.01992188 -0.08789062 14.00390625 C-0.07951172 12.97136719 -0.07113281 11.93882812 -0.0625 10.875 C-0.05798828 9.83472656 -0.05347656 8.79445313 -0.04882812 7.72265625 C-0.03701952 5.14838038 -0.02055075 2.57421854 0 0 Z " fill="#D2B262" transform="translate(155,293)"/>
<path d="M0 0 C0 2.64 0 5.28 0 8 C-4.95 7.67 -9.9 7.34 -15 7 C-15 7.99 -15 8.98 -15 10 C-11.7 9.67 -8.4 9.34 -5 9 C-5 11.31 -5 13.62 -5 16 C-7.97 16 -10.94 16 -14 16 C-14.33 16.66 -14.66 17.32 -15 18 C-10.05 17.67 -5.1 17.34 0 17 C0 19.64 0 22.28 0 25 C-7.26 25 -14.52 25 -22 25 C-23.25248502 22.49502996 -23.11374406 20.79146726 -23.09765625 17.9921875 C-23.09443359 17.00605469 -23.09121094 16.01992188 -23.08789062 15.00390625 C-23.07951172 13.97136719 -23.07113281 12.93882812 -23.0625 11.875 C-23.05798828 10.83472656 -23.05347656 9.79445313 -23.04882812 8.72265625 C-23.03701952 6.14838038 -23.02055075 3.57421854 -23 1 C-19.54170353 0.83256252 -16.08335707 0.66618079 -12.625 0.5 C-11.64015625 0.45230469 -10.6553125 0.40460938 -9.640625 0.35546875 C-8.69960937 0.31035156 -7.75859375 0.26523437 -6.7890625 0.21875 C-5.91975098 0.17685547 -5.05043945 0.13496094 -4.15478516 0.09179688 C-2.77077412 0.03283606 -1.38526637 0 0 0 Z " fill="#D2B160" transform="translate(211,292)"/>
<path d="M0 0 C0 2.64 0 5.28 0 8 C-4.95 7.67 -9.9 7.34 -15 7 C-15 7.99 -15 8.98 -15 10 C-11.7 9.67 -8.4 9.34 -5 9 C-5 11.31 -5 13.62 -5 16 C-7.97 16 -10.94 16 -14 16 C-14.33 16.66 -14.66 17.32 -15 18 C-10.05 17.67 -5.1 17.34 0 17 C0 19.64 0 22.28 0 25 C-3.27075883 25.0580476 -6.54138524 25.09361165 -9.8125 25.125 C-10.74126953 25.14175781 -11.67003906 25.15851563 -12.62695312 25.17578125 C-13.51962891 25.18222656 -14.41230469 25.18867188 -15.33203125 25.1953125 C-16.15421143 25.20578613 -16.9763916 25.21625977 -17.82348633 25.22705078 C-20 25 -20 25 -23 23 C-23.34057617 20.75341797 -23.34057617 20.75341797 -23.29296875 17.9921875 C-23.28330078 17.00605469 -23.27363281 16.01992188 -23.26367188 15.00390625 C-23.23853516 13.97136719 -23.21339844 12.93882812 -23.1875 11.875 C-23.17396484 10.83472656 -23.16042969 9.79445313 -23.14648438 8.72265625 C-23.11105228 6.14792373 -23.06165221 3.5742167 -23 1 C-19.54170353 0.83256252 -16.08335707 0.66618079 -12.625 0.5 C-11.64015625 0.45230469 -10.6553125 0.40460938 -9.640625 0.35546875 C-8.69960938 0.31035156 -7.75859375 0.26523437 -6.7890625 0.21875 C-5.91975098 0.17685547 -5.05043945 0.13496094 -4.15478516 0.09179688 C-2.77077412 0.03283606 -1.38526637 0 0 0 Z " fill="#D5B358" transform="translate(343,292)"/>
<path d="M0 0 C-0.56371414 3.26954202 -1.49962266 4.82575883 -4 7 C-4.66 6.67 -5.32 6.34 -6 6 C-7.70702735 5.93003986 -9.41668003 5.91559846 -11.125 5.9375 C-12.03507812 5.94652344 -12.94515625 5.95554687 -13.8828125 5.96484375 C-14.93082031 5.98224609 -14.93082031 5.98224609 -16 6 C-15.18015625 6.10957031 -14.3603125 6.21914063 -13.515625 6.33203125 C-12.43796875 6.49058594 -11.3603125 6.64914062 -10.25 6.8125 C-9.18265625 6.96332031 -8.1153125 7.11414063 -7.015625 7.26953125 C-3.89526696 8.02536927 -2.25948045 8.74051955 0 11 C0.5 14.4375 0.5 14.4375 0 18 C-2.21863029 20.90717073 -3.51944929 21.83981643 -7 23 C-13.35866888 23.43538656 -18.98864489 23.13737071 -25 21 C-24.01 17.535 -24.01 17.535 -23 14 C-20 14 -20 14 -17.8125 15 C-14.04917544 16.33807096 -10.983237 16.13502498 -7 16 C-7 15.34 -7 14.68 -7 14 C-7.80824219 13.97421875 -8.61648438 13.9484375 -9.44921875 13.921875 C-18.05150349 13.46530018 -18.05150349 13.46530018 -22.3125 11.375 C-24 9 -24 9 -24.1875 5.4375 C-23 2 -23 2 -20.5 0.0625 C-13.6691367 -2.01115493 -6.96475363 -1.01305507 0 0 Z " fill="#D2B161" transform="translate(406,294)"/>
<path d="M0 0 C-0.60183749 2.02045442 -1.27306096 4.02111039 -2 6 C-2.99 6.495 -2.99 6.495 -4 7 C-4.66 6.67 -5.32 6.34 -6 6 C-7.70702735 5.93003986 -9.41668003 5.91559846 -11.125 5.9375 C-12.03507813 5.94652344 -12.94515625 5.95554687 -13.8828125 5.96484375 C-14.93082031 5.98224609 -14.93082031 5.98224609 -16 6 C-15.18015625 6.10957031 -14.3603125 6.21914063 -13.515625 6.33203125 C-12.43796875 6.49058594 -11.3603125 6.64914062 -10.25 6.8125 C-9.18265625 6.96332031 -8.1153125 7.11414063 -7.015625 7.26953125 C-3.89526696 8.02536927 -2.25948045 8.74051955 0 11 C0.5 14.4375 0.5 14.4375 0 18 C-2.21863029 20.90717073 -3.51944929 21.83981643 -7 23 C-13.35866888 23.43538656 -18.98864489 23.13737071 -25 21 C-24.01 17.535 -24.01 17.535 -23 14 C-20 14 -20 14 -17.8125 15 C-14.04917544 16.33807096 -10.983237 16.13502498 -7 16 C-7 15.34 -7 14.68 -7 14 C-7.73605469 13.96261719 -8.47210938 13.92523438 -9.23046875 13.88671875 C-19.82719547 13.17280453 -19.82719547 13.17280453 -24 9 C-23.9375 5.625 -23.9375 5.625 -23 2 C-16.45571155 -3.07182355 -7.65778043 -1.11385897 0 0 Z " fill="#D2B05F" transform="translate(239,294)"/>
<path d="M0 0 C2.97 0 5.94 0 9 0 C8.67 2.64 8.34 5.28 8 8 C11.3 8 14.6 8 18 8 C17.67 5.36 17.34 2.72 17 0 C19.97 0 22.94 0 26 0 C26 2.38719768 25.98578041 4.77311164 25.96484375 7.16015625 C25.95555147 8.79426983 25.94644356 10.42838447 25.9375 12.0625 C25.92912109 12.89072266 25.92074219 13.71894531 25.91210938 14.57226562 C25.90888672 15.36439453 25.90566406 16.15652344 25.90234375 16.97265625 C25.89710693 17.69718994 25.89187012 18.42172363 25.88647461 19.16821289 C25.88625726 21.09837373 25.88625726 21.09837373 27 23 C24.04335481 24.4783226 21.25770263 24.06032783 18 24 C16.3584951 20.7169902 17.48111376 17.57454967 18 14 C13.545 14.495 13.545 14.495 9 15 C9 17.64 9 20.28 9 23 C6.29120665 24.35439668 3.99066732 24.06501451 1 24 C-0.25248502 21.49502996 -0.11374406 19.79146726 -0.09765625 16.9921875 C-0.09443359 16.00605469 -0.09121094 15.01992188 -0.08789062 14.00390625 C-0.07951172 12.97136719 -0.07113281 11.93882812 -0.0625 10.875 C-0.05798828 9.83472656 -0.05347656 8.79445313 -0.04882812 7.72265625 C-0.03701952 5.14838038 -0.02055075 2.57421854 0 0 Z " fill="#D3B15F" transform="translate(244,293)"/>
<path d="M0 0 C0.495 1.485 0.495 1.485 1 3 C-2.11476663 3.91377082 -5.2110857 4.26545189 -8.43359375 4.59619141 C-16.37628945 5.42762198 -23.52060172 7.08190143 -31 10 C-29.02 10 -27.04 10 -25 10 C-27.98878319 12.54600049 -30.16578243 13.34537749 -34 14 C-37.15903366 15.00164482 -38.7423526 15.71819816 -41 18.1875 C-41.99 19.0846875 -41.99 19.0846875 -43 20 C-45.625 19.61328125 -45.625 19.61328125 -48 19 C-47.38234267 14.25233541 -46.76848878 10.17834946 -44.125 6.125 C-32.34116506 -1.88800776 -13.64356176 -3.28070378 0 0 Z " fill="#090502" transform="translate(267,144)"/>
<path d="M0 0 C2.74403055 2.06609359 5.05943738 4.17283499 7.32421875 6.75 C6.00421875 8.07 4.68421875 9.39 3.32421875 10.75 C3.98421875 12.07 4.64421875 13.39 5.32421875 14.75 C2.32421875 14.75 2.32421875 14.75 0.19921875 12.6875 C-0.23390625 12.23246094 -0.66703125 11.77742188 -1.11328125 11.30859375 C-10.06200457 2.38224224 -22.02384464 -4.12612738 -34.859375 -4.48046875 C-36.27741366 -4.47784306 -37.6954754 -4.46332818 -39.11328125 -4.4375 C-40.22207642 -4.42783203 -40.22207642 -4.42783203 -41.35327148 -4.41796875 C-46.51560607 -4.34533175 -51.56252336 -3.9937466 -56.67578125 -3.25 C-55.28121572 -6.03913106 -53.88729623 -6.25840365 -50.98828125 -7.375 C-33.80093539 -12.84370096 -14.79683456 -10.02296531 0 0 Z " fill="#B09759" transform="translate(291.67578125,158.25)"/>
<path d="M0 0 C3.63 0 7.26 0 11 0 C11.39832031 1.07378906 11.79664063 2.14757812 12.20703125 3.25390625 C12.74209782 4.69013758 13.27725914 6.12633362 13.8125 7.5625 C14.20405273 8.61920898 14.20405273 8.61920898 14.60351562 9.69726562 C16.28078041 14.1906787 18.07721815 18.60589494 20 23 C17.23749964 24.38125018 15.05268901 24.19079306 12 24 C11.34 23.34 10.68 22.68 10 22 C10 21.01 10 20.02 10 19 C6.7 19 3.4 19 0 19 C0 20.32 0 21.64 0 23 C-2.31 23.33 -4.62 23.66 -7 24 C-8 22 -8 22 -7.48681641 20.18408203 C-7.19468262 19.46591309 -6.90254883 18.74774414 -6.6015625 18.0078125 C-6.28703125 17.22019531 -5.9725 16.43257813 -5.6484375 15.62109375 C-5.31070313 14.79738281 -4.97296875 13.97367187 -4.625 13.125 C-3.96921449 11.50346786 -3.31549526 9.8810982 -2.6640625 8.2578125 C-2.36967285 7.5373877 -2.0752832 6.81696289 -1.77197266 6.07470703 C-0.84984123 3.71388455 -0.84984123 3.71388455 0 0 Z M4 8 C3.34 9.98 2.68 11.96 2 14 C3.98 14 5.96 14 8 14 C7.34 12.02 6.68 10.04 6 8 C5.34 8 4.68 8 4 8 Z " fill="#D2AF5D" transform="translate(131,293)"/>
<path d="M0 0 C0.99 0.495 0.99 0.495 2 1 C-12.59424603 11.97396794 -31.56997526 16.52437544 -49.69140625 14.58203125 C-55.25844269 13.60270607 -60.85224338 12.38094006 -66 10 C-66.33 9.01 -66.66 8.02 -67 7 C-67.66 7 -68.32 7 -69 7 C-68.34 5.02 -67.68 3.04 -67 1 C-65.33710938 1.63228516 -65.33710938 1.63228516 -63.640625 2.27734375 C-62.17712752 2.830846 -60.7135834 3.38422496 -59.25 3.9375 C-58.52039063 4.21529297 -57.79078125 4.49308594 -57.0390625 4.77929688 C-56.33007812 5.04677734 -55.62109375 5.31425781 -54.890625 5.58984375 C-54.24125977 5.83597412 -53.59189453 6.08210449 -52.92285156 6.33569336 C-38.49571565 11.3199794 -19.04651201 9.03615271 -5.38671875 2.80859375 C-3.58262518 1.8889226 -1.78965387 0.94746381 0 0 Z " fill="#EEC562" transform="translate(287,265)"/>
<path d="M0 0 C2.31 0 4.62 0 7 0 C7 13.53 7 27.06 7 41 C5.02 41 3.04 41 1 41 C-1.43485001 37.23002831 -1.37953251 33.36800351 -1.484375 29.0234375 C-1.5084845 28.25697906 -1.53259399 27.49052063 -1.55743408 26.70083618 C-1.60561561 25.08552055 -1.64903186 23.47005663 -1.68798828 21.85449219 C-1.74996784 19.37628596 -1.8329946 16.89938735 -1.91796875 14.421875 C-1.96220417 12.85159767 -2.00521529 11.28128527 -2.046875 9.7109375 C-2.07279724 8.96822601 -2.09871948 8.22551453 -2.12542725 7.46029663 C-2.16173402 5.64007968 -2.08993173 3.81835646 -2 2 C-1.34 1.34 -0.68 0.68 0 0 Z " fill="#D6B054" transform="translate(238,190)"/>
<path d="M0 0 C-0.33 0.99 -0.66 1.98 -1 3 C-2.98 3 -4.96 3 -7 3 C-7 3.66 -7 4.32 -7 5 C-8.98 5.33 -10.96 5.66 -13 6 C-13 6.66 -13 7.32 -13 8 C-13.81082031 8.40089844 -14.62164062 8.80179688 -15.45703125 9.21484375 C-24.3066287 13.75811788 -31.90972109 18.90972109 -39 26 C-40.32 26 -41.64 26 -43 26 C-43.33 25.01 -43.66 24.02 -44 23 C-42.35 22.01 -40.7 21.02 -39 20 C-39.99 19.67 -40.98 19.34 -42 19 C-39.77455589 14.42547601 -37.64074116 12.96339049 -33 11 C-31.824375 10.46375 -30.64875 9.9275 -29.4375 9.375 C-26.56495666 8.22598267 -24.04285542 7.4610387 -21 7 C-20.67 5.68 -20.34 4.36 -20 3 C-18.68 2.67 -17.36 2.34 -16 2 C-16 1.34 -16 0.68 -16 0 C-10.75881575 -1.74706142 -5.31166864 -1.32791716 0 0 Z " fill="#F8CA64" transform="translate(241,140)"/>
<path d="M0 0 C0.99 0 1.98 0 3 0 C3.226875 0.598125 3.45375 1.19625 3.6875 1.8125 C4.85611979 4.14908854 4.85611979 4.14908854 7.20703125 5.32421875 C10.99448512 7.59669107 14.20796985 10.45357805 17.5390625 13.328125 C19.88578403 15.32584692 22.13917788 17.08041389 24.8125 18.625 C27 20 27 20 28 23 C27.01 23.99 26.02 24.98 25 26 C25.66 26 26.32 26 27 26 C27 26.66 27 27.32 27 28 C22.36089292 26.66166268 18.79775402 24.77489722 14.8125 22.0625 C13.27529297 21.02802734 13.27529297 21.02802734 11.70703125 19.97265625 C7.38543355 16.82344003 7.38543355 16.82344003 6 15 C6 13.68 6 12.36 6 11 C5.01 10.67 4.02 10.34 3 10 C0.75129954 8.08199078 -0.74407977 6.62152056 -1.875 3.875 C-1.91625 3.25625 -1.9575 2.6375 -2 2 C-1.34 1.34 -0.68 0.68 0 0 Z " fill="#F3CA6F" transform="translate(193,246)"/>
<path d="M0 0 C6.27 0 12.54 0 19 0 C18.67 0.66 18.34 1.32 18 2 C17.76725791 4.87910588 17.58027243 7.74146495 17.4375 10.625 C17.39431641 11.42679688 17.35113281 12.22859375 17.30664062 13.0546875 C17.20048543 15.0362511 17.09973145 17.01810271 17 19 C16.34 19 15.68 19 15 19 C15 18.01 15 17.02 15 16 C14.31035156 16.28875 13.62070312 16.5775 12.91015625 16.875 C6.60415232 19.36626081 1.77021165 20.4439483 -5 20 C-1.99382731 16.99382731 0.82381598 17.40414684 5 17 C5 12.38 5 7.76 5 3 C2.525 2.01 2.525 2.01 0 1 C0 0.67 0 0.34 0 0 Z " fill="#B99C54" transform="translate(279,214)"/>
<path d="M0 0 C0 2.64 0 5.28 0 8 C-4.95 7.67 -9.9 7.34 -15 7 C-15 7.99 -15 8.98 -15 10 C-11.7 9.67 -8.4 9.34 -5 9 C-5 11.31 -5 13.62 -5 16 C-5.66 15.67 -6.32 15.34 -7 15 C-6.67 13.68 -6.34 12.36 -6 11 C-7.051875 11.185625 -8.10375 11.37125 -9.1875 11.5625 C-12.59542211 11.95357303 -14.73089212 11.76920185 -18 11 C-19.81115956 12.81115956 -19.38199448 15.61278227 -19.5625 18.0625 C-19.64628906 19.16722656 -19.73007812 20.27195312 -19.81640625 21.41015625 C-19.87699219 22.26480469 -19.93757813 23.11945313 -20 24 C-20.99 23.67 -21.98 23.34 -23 23 C-23 15.74 -23 8.48 -23 1 C-19.57625 0.835 -16.1525 0.67 -12.625 0.5 C-11.54686035 0.44779297 -10.4687207 0.39558594 -9.35791016 0.34179688 C-8.08633057 0.28088867 -8.08633057 0.28088867 -6.7890625 0.21875 C-5.91975098 0.17685547 -5.05043945 0.13496094 -4.15478516 0.09179688 C-2.77077412 0.03283606 -1.38526637 0 0 0 Z " fill="#D1B161" transform="translate(343,292)"/>
<path d="M0 0 C4.95 0 9.9 0 15 0 C13.68 0.99 12.36 1.98 11 3 C10.42674021 4.90047386 10.42674021 4.90047386 10.54589844 7.01245117 C10.54620056 7.81305466 10.54650269 8.61365814 10.54681396 9.43852234 C10.56745911 10.29798965 10.58810425 11.15745697 10.609375 12.04296875 C10.61503479 12.9265657 10.62069458 13.81016266 10.62652588 14.72053528 C10.64892133 17.54340743 10.69912273 20.36501138 10.75 23.1875 C10.77006094 25.10089313 10.78831242 27.01430615 10.8046875 28.92773438 C10.84879643 33.61897842 10.91784515 38.30927418 11 43 C12.32 43.33 13.64 43.66 15 44 C15 44.33 15 44.66 15 45 C8.4 45 1.8 45 -5 45 C-3.68 44.01 -2.36 43.02 -1 42 C-0.64288133 39.42202563 -0.53186407 37.27685887 -0.609375 34.70703125 C-0.61503479 34.00100266 -0.62069458 33.29497406 -0.62652588 32.56755066 C-0.64889589 30.31517374 -0.69908801 28.06439497 -0.75 25.8125 C-0.77006444 24.28452821 -0.78831532 22.75653144 -0.8046875 21.22851562 C-0.84536048 17.484568 -0.9236337 13.74406975 -1 10 C-3.64 16.93 -6.28 23.86 -9 31 C-9.66 30.34 -10.32 29.68 -11 29 C-7.37 19.43 -3.74 9.86 0 0 Z M2 2 C-0.45695687 5.6854353 -0.20060498 8.34557641 -0.046875 12.58984375 C-0.02659241 13.33077774 -0.00630981 14.07171173 0.0145874 14.83509827 C0.06013093 16.40120831 0.11089869 17.9671739 0.16650391 19.53295898 C0.24955816 21.92477571 0.31150892 24.31648093 0.37109375 26.70898438 C0.41800325 28.23181041 0.46613981 29.75459924 0.515625 31.27734375 C0.53345032 31.99099594 0.55127563 32.70464813 0.56964111 33.43992615 C0.7128857 37.08956703 1.01075296 39.88741935 3 43 C4.98 43 6.96 43 9 43 C9 29.47 9 15.94 9 2 C6.69 2 4.38 2 2 2 Z " fill="#AE955B" transform="translate(236,188)"/>
<path d="M0 0 C0.4125 0.495 0.825 0.99 1.25 1.5 C3.12202338 3.43386092 3.12202338 3.43386092 7 3 C0.12698128 17.04486434 -12.90474104 24.74616028 -27.0546875 30.15234375 C-29.87982565 30.96541401 -32.08242418 31.17763838 -35 31 C-31.90335869 28.93557246 -28.81175409 27.50425025 -25.4375 25.9375 C-14.78342086 20.74472083 -7.04022742 13.2332905 -1 3 C-0.67 2.01 -0.34 1.02 0 0 Z " fill="#C9AE68" transform="translate(302,236)"/>
<path d="M0 0 C0.495 0.99 0.495 0.99 1 2 C-0.375 3.5 -0.375 3.5 -2 5 C-2.66 5 -3.32 5 -4 5 C-4 5.66 -4 6.32 -4 7 C-10.52325581 9.81395349 -10.52325581 9.81395349 -13.5625 11 C-19.25224451 13.06797542 -19.25224451 13.06797542 -23.375 17.1875 C-23.58125 17.785625 -23.7875 18.38375 -24 19 C-23.34 19.33 -22.68 19.66 -22 20 C-22.33 20.66 -22.66 21.32 -23 22 C-23.99 22.33 -24.98 22.66 -26 23 C-26 23.99 -26 24.98 -26 26 C-25.01 26.33 -24.02 26.66 -23 27 C-26.25145196 30.90174235 -29.15297274 31.76621124 -34 33 C-34.99 33.66 -35.98 34.32 -37 35 C-36.45276317 31.62537285 -35.9451 29.91765 -34 27 C-33.34 27 -32.68 27 -32 27 C-32.08894531 26.27554688 -32.17789063 25.55109375 -32.26953125 24.8046875 C-31.72179058 19.10500922 -26.13055607 15.53810366 -22 12 C-15.18154688 6.93011867 -7.81358368 3.27958928 0 0 Z " fill="#F3CB6F" transform="translate(224,140)"/>
<path d="M0 0 C0.99 0.33 1.98 0.66 3 1 C3.66 0.01 4.32 -0.98 5 -2 C5 2.95 5 7.9 5 13 C4.34 13 3.68 13 3 13 C2.51171875 11.01432292 2.0234375 9.02864583 1.53515625 7.04296875 C0.73018692 3.27077406 0.73018692 3.27077406 -2 0.8125 C-6.09308424 -0.29604365 -9.796831 -0.71835979 -14 0 C-19.14767912 3.4690881 -20.46114044 8.25742651 -22 14 C-23.32 12.68 -24.64 11.36 -26 10 C-26.78375 10.495 -27.5675 10.99 -28.375 11.5 C-31 13 -31 13 -33 13 C-31.70082792 7.08154941 -28.66755089 3.63848455 -24 0 C-16.01163027 -4.61117277 -8.00854071 -4.00427035 0 0 Z " fill="#CEAD58" transform="translate(290,190)"/>
<path d="M0 0 C9.79022193 3.45095945 18.71887837 8.1941631 26.25 15.375 C22.93788267 15.375 22.1660574 14.88306626 19.4375 13.1875 C6.43428575 5.86408973 -6.10231896 4.27029914 -20.75 3.375 C-14.68408318 -4.51069187 -8.88177398 -2.74463307 0 0 Z " fill="#A28F5B" transform="translate(268.75,139.625)"/>
<path d="M0 0 C2.18975773 3.28463659 2.99806563 6.20696275 4 10 C4.66 10 5.32 10 6 10 C5.43174347 15.54050113 3.37113483 20.03715966 1 25 C-1.67479093 22.65476784 -2.88166223 20.41711208 -4.1875 17.125 C-4.53167969 16.28195313 -4.87585938 15.43890625 -5.23046875 14.5703125 C-6.04723546 11.84222876 -6.32001109 9.82833332 -6 7 C-3.5625 4.3125 -3.5625 4.3125 -1 2 C-0.67 1.34 -0.34 0.68 0 0 Z " fill="#CEAB57" transform="translate(220,208)"/>
<path d="M0 0 C0.88042969 0.00257812 1.76085937 0.00515625 2.66796875 0.0078125 C3.54066406 0.00523438 4.41335937 0.00265625 5.3125 0 C7.65441495 0.12231199 9.6016937 0.53180582 11.85546875 1.1328125 C14.98068708 1.29980482 14.98068708 1.29980482 17.85546875 1.1328125 C18.18546875 0.8028125 18.51546875 0.4728125 18.85546875 0.1328125 C20.70834377 0.06054748 22.56380753 0.0490003 24.41796875 0.0703125 C25.42988281 0.07933594 26.44179688 0.08835937 27.484375 0.09765625 C28.65806641 0.11505859 28.65806641 0.11505859 29.85546875 0.1328125 C30.35046875 1.1228125 30.35046875 1.1228125 30.85546875 2.1328125 C30.29859375 2.2153125 29.74171875 2.2978125 29.16796875 2.3828125 C26.15552072 3.35982267 24.26164542 5.10655846 21.85546875 7.1328125 C20.86546875 7.6278125 20.86546875 7.6278125 19.85546875 8.1328125 C18.86546875 7.4728125 17.87546875 6.8128125 16.85546875 6.1328125 C16.32953125 6.8753125 16.32953125 6.8753125 15.79296875 7.6328125 C12.91172586 9.86345216 10.38537849 9.33261871 6.85546875 9.1328125 C6.85546875 8.4728125 6.85546875 7.8128125 6.85546875 7.1328125 C6.19546875 7.1328125 5.53546875 7.1328125 4.85546875 7.1328125 C4.19546875 6.4728125 3.53546875 5.8128125 2.85546875 5.1328125 C0.89258541 3.59930989 -0.91483281 2.24766172 -3.14453125 1.1328125 C-2.14453125 0.1328125 -2.14453125 0.1328125 0 0 Z " fill="#D2B057" transform="translate(236.14453125,103.8671875)"/>
<path d="M0 0 C2.64 0 5.28 0 8 0 C11 5.75 11 5.75 11 8 C10.34 8 9.68 8 9 8 C9.33 9.32 9.66 10.64 10 12 C9.01 11.67 8.02 11.34 7 11 C6.67 10.34 6.34 9.68 6 9 C5.97301811 10.62490954 5.95361243 12.24994633 5.9375 13.875 C5.92589844 14.77992188 5.91429688 15.68484375 5.90234375 16.6171875 C5.83750743 19.0168585 5.83750743 19.0168585 7 21 C3.04 21.495 3.04 21.495 -1 22 C-0.67 14.74 -0.34 7.48 0 0 Z " fill="#D5AF58" transform="translate(91,295)"/>
<path d="M0 0 C-0.33 0.99 -0.66 1.98 -1 3 C-2.98 3 -4.96 3 -7 3 C-7 3.66 -7 4.32 -7 5 C-8.98 5.33 -10.96 5.66 -13 6 C-13 6.66 -13 7.32 -13 8 C-16.96 9.98 -20.92 11.96 -25 14 C-25.66 13.34 -26.32 12.68 -27 12 C-25 11 -23 10 -21 9 C-20.34227572 5.97065509 -20.34227572 5.97065509 -20 3 C-18.68 2.67 -17.36 2.34 -16 2 C-16 1.34 -16 0.68 -16 0 C-10.75881575 -1.74706142 -5.31166864 -1.32791716 0 0 Z " fill="#F0C255" transform="translate(241,140)"/>
<path d="M0 0 C-0.70829334 3.92957265 -2.58917288 7.20117102 -4.4375 10.6875 C-7.22526562 16.07159669 -9.06858132 20.99752409 -10 27 C-10.33 27 -10.66 27 -11 27 C-11.33 24.36 -11.66 21.72 -12 19 C-13.32 18.67 -14.64 18.34 -16 18 C-16 16.68 -16 15.36 -16 14 C-15.05125 13.7525 -14.1025 13.505 -13.125 13.25 C-9.95247265 12.31956976 -9.95247265 12.31956976 -8.6875 10.0625 C-8.460625 9.381875 -8.23375 8.70125 -8 8 C-7.67 7.01 -7.34 6.02 -7 5 C-7.66 4.67 -8.32 4.34 -9 4 C-6.43425105 1.43425105 -3.68548192 0 0 0 Z " fill="#EBC673" transform="translate(197,170)"/>
<path d="M0 0 C4.2742558 1.5830577 6.26531794 4.50568404 9 8 C8.34 8.66 7.68 9.32 7 10 C6.34 9.01 5.68 8.02 5 7 C4.34 7 3.68 7 3 7 C3.66 8.98 4.32 10.96 5 13 C5.99 13 6.98 13 8 13 C7.835 13.515625 7.67 14.03125 7.5 14.5625 C6.84951 17.73363876 6.9379266 20.77218334 7 24 C4.76024102 21.10306623 2.77421006 18.13035629 0.875 15 C0.35679687 14.154375 -0.16140625 13.30875 -0.6953125 12.4375 C-1.87802415 10.22788302 -2.48698163 8.42898491 -3 6 C-3.33 5.34 -3.66 4.68 -4 4 C-2.68 2.68 -1.36 1.36 0 0 Z " fill="#C7AC63" transform="translate(298,165)"/>
<path d="M0 0 C0.99 0.33 1.98 0.66 3 1 C2.97381592 2.06959961 2.94763184 3.13919922 2.9206543 4.24121094 C2.83006893 8.21430495 2.77272143 12.18730798 2.7253418 16.16113281 C2.70021633 17.88003901 2.66610953 19.59883856 2.62280273 21.31738281 C2.56205971 23.78998114 2.53377238 26.26116606 2.51171875 28.734375 C2.48591232 29.50118591 2.4601059 30.26799683 2.43351746 31.05804443 C2.37770911 33.51499685 2.37770911 33.51499685 3 37 C5.475 38.98 5.475 38.98 8 41 C3.71 41 -0.58 41 -5 41 C-4.67 40.34 -4.34 39.68 -4 39 C-3.01 39 -2.02 39 -1 39 C-0.67 26.13 -0.34 13.26 0 0 Z " fill="#92835E" transform="translate(201,192)"/>
<path d="M0 0 C0.495 0.37125 0.99 0.7425 1.5 1.125 C0.84 1.125 0.18 1.125 -0.5 1.125 C-0.5 4.095 -0.5 7.065 -0.5 10.125 C-7.25 11.25 -7.25 11.25 -9.5 10.125 C-9.83 10.785 -10.16 11.445 -10.5 12.125 C-10.20703125 10.13932292 -9.9140625 8.15364583 -9.62109375 6.16796875 C-9.36095201 3.9224658 -9.36095201 3.9224658 -10.5 1.125 C-3.11538462 -1.09038462 -3.11538462 -1.09038462 0 0 Z " fill="#DCBB4B" transform="translate(237.5,105.875)"/>
<path d="M0 0 C1.32 0 2.64 0 4 0 C4 0.66 4 1.32 4 2 C4.66 2 5.32 2 6 2 C5.67 4.31 5.34 6.62 5 9 C5.66 9.33 6.32 9.66 7 10 C6.34 11.65 5.68 13.3 5 15 C1.91157003 14.1059808 0.36600955 13.58228792 -1.375 10.8125 C-2.16226665 7.26980009 -1.74673478 4.53001895 -1 1 C-0.67 0.67 -0.34 0.34 0 0 Z " fill="#D3AE54" transform="translate(207,190)"/>
<path d="M0 0 C0.66 0.33 1.32 0.66 2 1 C-4.70017613 6.03811694 -11.86937954 9.81224269 -20 12 C-21.34115891 11.6996974 -22.67456059 11.36345461 -24 11 C-25.36676632 10.86070644 -26.7374567 10.75634699 -28.109375 10.68359375 C-28.86347656 10.64169922 -29.61757813 10.59980469 -30.39453125 10.55664062 C-31.56048828 10.49766602 -31.56048828 10.49766602 -32.75 10.4375 C-33.93916016 10.37272461 -33.93916016 10.37272461 -35.15234375 10.30664062 C-37.10137815 10.20097009 -39.05066748 10.10002034 -41 10 C-41 9.67 -41 9.34 -41 9 C-39.87464844 8.97421875 -38.74929687 8.9484375 -37.58984375 8.921875 C-24.02979898 8.47482424 -12.14050943 6.42732852 0 0 Z " fill="#AB9253" transform="translate(287,265)"/>
<path d="M0 0 C-0.99 0 -1.98 0 -3 0 C-2.67 1.65 -2.34 3.3 -2 5 C-1.05125 5.28875 -0.1025 5.5775 0.875 5.875 C4 7 4 7 6 9 C5.67 9.33 5.34 9.66 5 10 C2.99948505 9.74186904 0.99883999 9.47951646 -0.9921875 9.15625 C-3.20703469 8.8529674 -3.20703469 8.8529674 -6 10 C-8.00875442 9.72428861 -10.01178687 9.39764263 -12 9 C-12 8.01 -12 7.02 -12 6 C-11.34 6 -10.68 6 -10 6 C-9.67 5.01 -9.34 4.02 -9 3 C-7.68 3 -6.36 3 -5 3 C-4.67 2.01 -4.34 1.02 -4 0 C-4.99 -0.33 -5.98 -0.66 -7 -1 C-3.51418144 -2.2020064 -3.32007656 -2.21338437 0 0 Z M-5 5 C-4 7 -4 7 -4 7 Z " fill="#DDBB4E" transform="translate(267,107)"/>
<path d="M0 0 C4.29 0 8.58 0 13 0 C13 1.65 13 3.3 13 5 C11.20095222 6.79904778 8.54936549 6.17296543 6.125 6.1875 C4.52011719 6.20876953 4.52011719 6.20876953 2.8828125 6.23046875 C0 6 0 6 -3 4 C-1.68 3.67 -0.36 3.34 1 3 C0.67 2.01 0.34 1.02 0 0 Z " fill="#DBBB49" transform="translate(329,311)"/>
<path d="M0 0 C4.95 0 9.9 0 15 0 C20 9.75 20 9.75 20 12 C17.525 11.505 17.525 11.505 15 11 C15.33 8.69 15.66 6.38 16 4 C15.34 4 14.68 4 14 4 C14 3.34 14 2.68 14 2 C12.68 2.33 11.36 2.66 10 3 C9.67 5.31 9.34 7.62 9 10 C7 8 7 8 6 5 C4.02514795 3.6296945 2.02613283 2.29327628 0 1 C0 0.67 0 0.34 0 0 Z " fill="#C7A95F" transform="translate(197,188)"/>
<path d="M0 0 C1.03125 0.515625 2.0625 1.03125 3.125 1.5625 C4.115 1.8925 5.105 2.2225 6.125 2.5625 C6.785 1.5725 7.445 0.5825 8.125 -0.4375 C8.125 4.5125 8.125 9.4625 8.125 14.5625 C7.465 14.5625 6.805 14.5625 6.125 14.5625 C5.63671875 12.57682292 5.1484375 10.59114583 4.66015625 8.60546875 C3.85518692 4.83327406 3.85518692 4.83327406 1.125 2.375 C-3.29042381 1.17915605 -8.66956877 0.45978439 -12.875 2.5625 C-12.875 1.9025 -12.875 1.2425 -12.875 0.5625 C-13.865 0.2325 -14.855 -0.0975 -15.875 -0.4375 C-10.58198978 -2.20183674 -5.15812939 -2.24982239 0 0 Z " fill="#A89362" transform="translate(286.875,188.4375)"/>
<path d="M0 0 C0.82242188 0.01353516 1.64484375 0.02707031 2.4921875 0.04101562 C4.49508221 0.07594984 6.49763356 0.12973943 8.5 0.1875 C8.17 1.1775 7.84 2.1675 7.5 3.1875 C6.37722656 3.24808594 5.25445312 3.30867187 4.09765625 3.37109375 C-3.46340965 3.79044982 -10.9838441 4.23089834 -18.5 5.1875 C-17.04601674 2.27953347 -14.78422576 1.84128984 -11.84375 0.79833984 C-7.89345391 -0.23120607 -4.05533506 -0.12879321 0 0 Z " fill="#D6B667" transform="translate(253.5,149.8125)"/>
<path d="M0 0 C1.22589844 0.15275391 1.22589844 0.15275391 2.4765625 0.30859375 C3.41628906 0.43427734 3.41628906 0.43427734 4.375 0.5625 C4.705 2.2125 5.035 3.8625 5.375 5.5625 C0.095 5.5625 -5.185 5.5625 -10.625 5.5625 C-5.59909326 -0.71988342 -5.59909326 -0.71988342 0 0 Z " fill="#B99B54" transform="translate(258.625,137.4375)"/>
<path d="M0 0 C2.64 0 5.28 0 8 0 C8 1.98 8 3.96 8 6 C1.4 6 -5.2 6 -12 6 C-11.67 5.34 -11.34 4.68 -11 4 C-8.49609375 3.5859375 -8.49609375 3.5859375 -5.4375 3.375 C-4.42558594 3.30023438 -3.41367188 3.22546875 -2.37109375 3.1484375 C-1.58863281 3.09945313 -0.80617187 3.05046875 0 3 C0 2.01 0 1.02 0 0 Z " fill="#E1C640" transform="translate(201,311)"/>
<path d="M0 0 C-0.99 0.495 -0.99 0.495 -2 1 C-2.33 1.99 -2.66 2.98 -3 4 C-6.05619092 6.9156764 -8.68527408 7.5167949 -12.8125 8.0625 C-17.37469335 8.72700552 -21.61137392 9.60361897 -26 11 C-26 10.34 -26 9.68 -26 9 C-24.02 8.67 -22.04 8.34 -20 8 C-20 7.34 -20 6.68 -20 6 C-15.545 5.505 -15.545 5.505 -11 5 C-11 4.34 -11 3.68 -11 3 C-10.34 2.67 -9.68 2.34 -9 2 C-9.33 1.34 -9.66 0.68 -10 0 C-6.30581799 -1.231394 -3.7943739 -0.64432764 0 0 Z " fill="#C7A757" transform="translate(254,137)"/>
<path d="M0 0 C0.33 0 0.66 0 1 0 C1.20753906 0.78761719 1.41507813 1.57523438 1.62890625 2.38671875 C4.47283198 12.44160261 8.47723785 21.73254768 15 30 C13.68 29.67 12.36 29.34 11 29 C10.67 27.68 10.34 26.36 10 25 C8.68 25.33 7.36 25.66 6 26 C6.33 24.02 6.66 22.04 7 20 C6.01 19.67 5.02 19.34 4 19 C1.13914975 12.9338493 -0.60901237 6.69913606 0 0 Z " fill="#D7B87A" transform="translate(186,221)"/>
<path d="M0 0 C1.98 0.99 3.96 1.98 6 3 C6 5.97 6 8.94 6 12 C4 13 4 13 -2 13 C-1.34 8.71 -0.68 4.42 0 0 Z " fill="#D8B951" transform="translate(247,304)"/>
<path d="M0 0 C1.11375 0.3403125 1.11375 0.3403125 2.25 0.6875 C-3.08460776 6.57310011 -11.14349387 9.69531982 -18.75 11.6875 C-21.625 11.8125 -21.625 11.8125 -23.75 11.6875 C-19.99217859 9.18228573 -15.98917342 7.30104168 -11.93164062 5.34179688 C-9.27360284 4.03683903 -6.83399064 2.75197474 -4.48046875 0.9453125 C-2.75 -0.3125 -2.75 -0.3125 0 0 Z " fill="#A79460" transform="translate(290.75,255.3125)"/>
<path d="M0 0 C6.27 0 12.54 0 19 0 C19 0.66 19 1.32 19 2 C21.97 2.495 21.97 2.495 25 3 C25 3.99 25 4.98 25 6 C16.42857143 6.14285714 16.42857143 6.14285714 13 5 C13 4.01 13 3.02 13 2 C8.71 1.67 4.42 1.34 0 1 C0 0.67 0 0.34 0 0 Z " fill="#BEA05E" transform="translate(248,149)"/>
<path d="M0 0 C2 2 2 2 2.1953125 5.9140625 C2.18200376 7.48449351 2.15813602 9.05486221 2.125 10.625 C2.11597656 11.42679687 2.10695313 12.22859375 2.09765625 13.0546875 C2.07406223 15.03658523 2.03819065 17.01832981 2 19 C-0.31 18.67 -2.62 18.34 -5 18 C-4.67 16.02 -4.34 14.04 -4 12 C-2.35 12 -0.7 12 1 12 C0.67 10.68 0.34 9.36 0 8 C-0.99 8 -1.98 8 -3 8 C-2.01 5.36 -1.02 2.72 0 0 Z " fill="#D4AF5C" transform="translate(373,298)"/>
<path d="M0 0 C-2.98878319 2.54600049 -5.16578243 3.34537749 -9 4 C-12.15903366 5.00164482 -13.7423526 5.71819816 -16 8.1875 C-16.99 9.0846875 -16.99 9.0846875 -18 10 C-20.75 9.75 -20.75 9.75 -23 9 C-22.67 7.02 -22.34 5.04 -22 3 C-20.205625 3.0928125 -20.205625 3.0928125 -18.375 3.1875 C-15.18857182 3.20427067 -13.95555772 2.97777886 -11 1.5 C-7.04400697 -0.47799652 -4.38073666 -0.22658983 0 0 Z " fill="#211407" transform="translate(242,154)"/>
<path d="M0 0 C-0.56371414 3.26954202 -1.49962266 4.82575883 -4 7 C-4.66 6.67 -5.32 6.34 -6 6 C-7.53668865 5.77532169 -9.07968054 5.59203195 -10.625 5.4375 C-11.44226563 5.35371094 -12.25953125 5.26992188 -13.1015625 5.18359375 C-13.72804688 5.12300781 -14.35453125 5.06242187 -15 5 C-15 3.68 -15 2.36 -15 1 C-13.1746875 1.0309375 -13.1746875 1.0309375 -11.3125 1.0625 C-7.45098448 1.06933454 -3.80045657 0 0 0 Z " fill="#DCBA48" transform="translate(406,294)"/>
<path d="M0 0 C3.63 0.33 7.26 0.66 11 1 C11.33 2.65 11.66 4.3 12 6 C10.96875 5.95875 9.9375 5.9175 8.875 5.875 C5.13170373 5.99575149 2.46265453 6.64872018 -1 8 C-0.67 5.36 -0.34 2.72 0 0 Z " fill="#D8B24F" transform="translate(192,302)"/>
<path d="M0 0 C-0.60183749 2.02045442 -1.27306096 4.02111039 -2 6 C-4 7 -4 7 -7.125 6.0625 C-8.07375 5.711875 -9.0225 5.36125 -10 5 C-8.68 4.01 -7.36 3.02 -6 2 C-10.95 2 -15.9 2 -21 2 C-18.05551062 -3.88897875 -5.37991065 -0.78253246 0 0 Z " fill="#CEB066" transform="translate(239,294)"/>
<path d="M0 0 C3.96 0 7.92 0 12 0 C12.33 1.65 12.66 3.3 13 5 C13.32483418 6.33542939 13.6550855 7.66961551 14 9 C11 7 11 7 10.3125 4.375 C10.209375 3.59125 10.10625 2.8075 10 2 C7.36 2 4.72 2 2 2 C2 8.93 2 15.86 2 23 C1.34 22.67 0.68 22.34 0 22 C0 14.74 0 7.48 0 0 Z " fill="#C9B06E" transform="translate(89,293)"/>
<path d="M0 0 C2.39727017 3.59590525 2.25745804 5.25876571 2.265625 9.53125 C2.26820313 10.81644531 2.27078125 12.10164062 2.2734375 13.42578125 C2.26924805 14.09432129 2.26505859 14.76286133 2.26074219 15.45166016 C2.25003768 17.49281547 2.26064663 19.53309075 2.2734375 21.57421875 C2.26957031 23.50201172 2.26957031 23.50201172 2.265625 25.46875 C2.26224121 27.23895508 2.26224121 27.23895508 2.25878906 29.04492188 C2 32 2 32 0 35 C-0.16713569 37.62531524 -0.16713569 37.62531524 0 40 C-1.98 40.495 -1.98 40.495 -4 41 C-3.79503906 40.32453125 -3.59007812 39.6490625 -3.37890625 38.953125 C-3.10949219 38.06109375 -2.84007812 37.1690625 -2.5625 36.25 C-2.29566406 35.36828125 -2.02882813 34.4865625 -1.75390625 33.578125 C-1.50511719 32.72734375 -1.25632812 31.8765625 -1 31 C-0.82146484 30.41669922 -0.64292969 29.83339844 -0.45898438 29.23242188 C0.1330969 26.35263935 0.1115238 23.64304598 0.09765625 20.703125 C0.09443359 19.49785156 0.09121094 18.29257813 0.08789062 17.05078125 C0.07951172 15.79652344 0.07113281 14.54226562 0.0625 13.25 C0.05798828 11.98027344 0.05347656 10.71054688 0.04882812 9.40234375 C0.03704556 6.26818164 0.02059416 3.13411459 0 0 Z " fill="#D1B873" transform="translate(307,195)"/>
<path d="M0 0 C2.475 0.495 2.475 0.495 5 1 C5.33 4.96 5.66 8.92 6 13 C4.02 13 2.04 13 0 13 C0 8.71 0 4.42 0 0 Z " fill="#DCB74E" transform="translate(174,304)"/>
<path d="M0 0 C2 3.75 2 3.75 2 6 C3.32 6.33 4.64 6.66 6 7 C6 7.33 6 7.66 6 8 C-0.6 8 -7.2 8 -14 8 C-9 3 -9 3 -7 2 C-6.67 3.32 -6.34 4.64 -6 6 C-4.02 6 -2.04 6 0 6 C0 4.02 0 2.04 0 0 Z " fill="#B9A163" transform="translate(245,225)"/>
<path d="M0 0 C0.99 0.33 1.98 0.66 3 1 C3.33 3.97 3.66 6.94 4 10 C2.68 10.33 1.36 10.66 0 11 C-0.99 11.495 -0.99 11.495 -2 12 C-2 8.37 -2 4.74 -2 1 C-1.34 0.67 -0.68 0.34 0 0 Z " fill="#D5AF56" transform="translate(291,300)"/>
<path d="M0 0 C5.61 0 11.22 0 17 0 C16.01 0.495 16.01 0.495 15 1 C15 1.66 15 2.32 15 3 C8.565 3.495 8.565 3.495 2 4 C2 3.01 2 2.02 2 1 C1.34 0.67 0.68 0.34 0 0 Z " fill="#C9A855" transform="translate(248,275)"/>
<path d="M0 0 C3.09244792 0.03255208 6.18489583 0.06510417 9.27734375 0.09765625 C9.27734375 7.68765625 9.27734375 15.27765625 9.27734375 23.09765625 C8.61734375 23.09765625 7.95734375 23.09765625 7.27734375 23.09765625 C6.94734375 16.49765625 6.61734375 9.89765625 6.27734375 3.09765625 C3.63734375 2.43765625 0.99734375 1.77765625 -1.72265625 1.09765625 C-2.05265625 2.08765625 -2.38265625 3.07765625 -2.72265625 4.09765625 C-3.05265625 3.10765625 -3.38265625 2.11765625 -3.72265625 1.09765625 C-2.72265625 0.09765625 -2.72265625 0.09765625 0 0 Z " fill="#CDB272" transform="translate(109.72265625,292.90234375)"/>
<path d="M0 0 C3.94727588 -0.17942163 6.5980513 -0.09350689 10 2 C10 2.99 10 3.98 10 5 C7.26094655 6.36952673 5.02912668 6.12621361 2 6 C1.34 5.67 0.68 5.34 0 5 C0 3.33333333 0 1.66666667 0 0 Z " fill="#E2C04B" transform="translate(240,274)"/>
<path d="M0 0 C0.99 0.66 1.98 1.32 3 2 C2.01 2 1.02 2 0 2 C0 2.66 0 3.32 0 4 C-0.99 4.33 -1.98 4.66 -3 5 C-3.309375 5.94875 -3.61875 6.8975 -3.9375 7.875 C-5.09710085 11.28559073 -5.9158851 12.26518537 -9 14 C-9.66 14 -10.32 14 -11 14 C-9.69977902 8.07677108 -6.47028205 4.82715185 -2 1 C-1.34 0.67 -0.68 0.34 0 0 Z " fill="#C3A55A" transform="translate(268,189)"/>
<path d="M0 0 C2.24956302 2.24956302 3.00510965 4.06323263 4.1875 7 C4.55230469 7.886875 4.91710937 8.77375 5.29296875 9.6875 C6 12 6 12 5 14 C3.35 14 1.7 14 0 14 C0 9.38 0 4.76 0 0 Z " fill="#130801" transform="translate(203,194)"/>
<path d="M0 0 C0.33 0.66 0.66 1.32 1 2 C1.99 2 2.98 2 4 2 C4 2.66 4 3.32 4 4 C3.67 4.33 3.34 4.66 3 5 C3 5.99 3 6.98 3 8 C-0.77545388 6.90931332 -3.47043472 6.0916909 -6 3 C-5.67 2.34 -5.34 1.68 -5 1 C-2.4375 0.375 -2.4375 0.375 0 0 Z " fill="#D5AF53" transform="translate(270,106)"/>
<path d="M0 0 C0.66 0 1.32 0 2 0 C1.67 1.65 1.34 3.3 1 5 C-2.63 5 -6.26 5 -10 5 C-10 4.34 -10 3.68 -10 3 C-9.34 3 -8.68 3 -8 3 C-8 2.34 -8 1.68 -8 1 C-6.865625 1.020625 -5.73125 1.04125 -4.5625 1.0625 C-1.18424326 1.41577477 -1.18424326 1.41577477 0 0 Z " fill="#D6AF53" transform="translate(339,294)"/>
<path d="M0 0 C1.34771696 2.21976911 2.04398726 3.50147776 1.8125 6.125 C1 8 1 8 -2 10 C-4.6875 10.125 -4.6875 10.125 -7 10 C-5.33248852 6.05860922 -2.77289351 3.2107188 0 0 Z " fill="#BAA062" transform="translate(296,246)"/>
<path d="M0 0 C5.51056176 3.88244124 7.67501323 7.72253573 10 14 C9.01 14 8.02 14 7 14 C6.67 12.02 6.34 10.04 6 8 C2.41672247 6.99782936 2.41672247 6.99782936 -1 8 C-1.33 5.69 -1.66 3.38 -2 1 C-1.34 0.67 -0.68 0.34 0 0 Z " fill="#D3B56E" transform="translate(303,171)"/>
<path d="M0 0 C0.66 0.99 1.32 1.98 2 3 C2.66 2.67 3.32 2.34 4 2 C4 2.66 4 3.32 4 4 C4.9590625 4.433125 4.9590625 4.433125 5.9375 4.875 C8 6 8 6 9 8 C6.04335481 9.4783226 3.25770263 9.06032783 0 9 C-1.53445094 5.93109813 -0.54984289 3.29905734 0 0 Z " fill="#DABF60" transform="translate(262,308)"/>
<path d="M0 0 C3.96 0 7.92 0 12 0 C11.67 2.31 11.34 4.62 11 7 C8.36 7 5.72 7 3 7 C3 6.34 3 5.68 3 5 C4.65 5 6.3 5 8 5 C8 4.34 8 3.68 8 3 C5.36 2.67 2.72 2.34 0 2 C0 1.34 0 0.68 0 0 Z " fill="#CBB066" transform="translate(220,310)"/>
<path d="M0 0 C8.15384615 2 8.15384615 2 10 5 C9.875 7.125 9.875 7.125 9 9 C8.01 9.33 7.02 9.66 6 10 C6 8.35 6 6.7 6 5 C5.01 5 4.02 5 3 5 C3 4.34 3 3.68 3 3 C2.01 2.67 1.02 2.34 0 2 C0 1.34 0 0.68 0 0 Z " fill="#D5AF53" transform="translate(395,302)"/>
<path d="M0 0 C0.66 0.66 1.32 1.32 2 2 C1.67 2.66 1.34 3.32 1 4 C0.34 4 -0.32 4 -1 4 C-1.0825 5.11375 -1.165 6.2275 -1.25 7.375 C-1.4975 8.57125 -1.745 9.7675 -2 11 C-4.046875 12.2265625 -4.046875 12.2265625 -6 13 C-4.44191344 3.40546697 -4.44191344 3.40546697 0 0 Z " fill="#D9B150" transform="translate(268,294)"/>
<path d="M0 0 C0.66 0.165 1.32 0.33 2 0.5 C1.67 1.49 1.34 2.48 1 3.5 C-0.98 3.5 -2.96 3.5 -5 3.5 C-5 4.16 -5 4.82 -5 5.5 C-5.66 5.5 -6.32 5.5 -7 5.5 C-7.33 4.18 -7.66 2.86 -8 1.5 C-9.98 1.5 -11.96 1.5 -14 1.5 C-9.54547875 -1.46968084 -5.09423683 -0.84903947 0 0 Z " fill="#E2B859" transform="translate(239,139.5)"/>
<path d="M0 0 C0 1.32 0 2.64 0 4 C-3.63 4 -7.26 4 -11 4 C-10.67 3.01 -10.34 2.02 -10 1 C-6.76421296 -0.31828361 -3.44785988 -0.07836045 0 0 Z " fill="#D7B050" transform="translate(201,311)"/>
<path d="M0 0 C0 2.64 0 5.28 0 8 C-0.99 7.67 -1.98 7.34 -3 7 C-2.67 5.35 -2.34 3.7 -2 2 C-12.395 2.495 -12.395 2.495 -23 3 C-23 2.34 -23 1.68 -23 1 C-19.54170353 0.83256252 -16.08335707 0.66618079 -12.625 0.5 C-11.64015625 0.45230469 -10.6553125 0.40460938 -9.640625 0.35546875 C-8.69960938 0.31035156 -7.75859375 0.26523437 -6.7890625 0.21875 C-5.91975098 0.17685547 -5.05043945 0.13496094 -4.15478516 0.09179688 C-2.77077412 0.03283606 -1.38526637 0 0 0 Z " fill="#CDB479" transform="translate(343,292)"/>
<path d="M0 0 C0 0.66 0 1.32 0 2 C0.639375 2.12375 1.27875 2.2475 1.9375 2.375 C2.618125 2.58125 3.29875 2.7875 4 3 C4.33 3.66 4.66 4.32 5 5 C1.62182575 5.84454356 -0.67465243 6.10844919 -4 5 C-4 4.34 -4 3.68 -4 3 C-5.32 2.67 -6.64 2.34 -8 2 C-8 1.67 -8 1.34 -8 1 C-2.25 0 -2.25 0 0 0 Z " fill="#F4C95E" transform="translate(234,273)"/>
<path d="M0 0 C2.0625 0.4375 2.0625 0.4375 4 1 C3.9175 1.721875 3.835 2.44375 3.75 3.1875 C4.07426559 6.83548794 5.57319587 8.34568298 8 11 C5 11 5 11 2.9375 9.9375 C0.27772999 7.27772999 -0.18255268 4.61039232 -1 1 C-0.67 0.67 -0.34 0.34 0 0 Z " fill="#AE9457" transform="translate(283,156)"/>
<path d="M0 0 C3.96 0 7.92 0 12 0 C10 3 10 3 8.125 3.546875 C7.073125 3.64742188 7.073125 3.64742188 6 3.75 C5.29875 3.82734375 4.5975 3.9046875 3.875 3.984375 C2 4 2 4 0 3 C0 2.01 0 1.02 0 0 Z " fill="#D6AF4F" transform="translate(222,295)"/>
<path d="M0 0 C0.66 0 1.32 0 2 0 C2.2475 0.598125 2.495 1.19625 2.75 1.8125 C4.07752171 4.4715904 4.07752171 4.4715904 8 7 C3.71 7 -0.58 7 -5 7 C-4.67 6.34 -4.34 5.68 -4 5 C-3.01 5 -2.02 5 -1 5 C-0.67 3.35 -0.34 1.7 0 0 Z " fill="#B19B62" transform="translate(201,226)"/>
<path d="M0 0 C1.32 0.33 2.64 0.66 4 1 C4.25 3.8125 4.25 3.8125 4 7 C2 8.875 2 8.875 0 10 C-0.66 9.34 -1.32 8.68 -2 8 C-1.63723355 5.17042171 -0.90305236 2.70915709 0 0 Z " fill="#DABE51" transform="translate(277,116)"/>
<path d="M0 0 C1.9375 0.75 1.9375 0.75 4 2 C4.75 4.125 4.75 4.125 5 6 C3.35 7.32 1.7 8.64 0 10 C-0.309375 9.05125 -0.61875 8.1025 -0.9375 7.125 C-1.87394742 4.13919592 -1.87394742 4.13919592 -3 2 C-2.01 2 -1.02 2 0 2 C0 1.34 0 0.68 0 0 Z " fill="#D6B271" transform="translate(281,112)"/>
<path d="M0 0 C0.66 0.33 1.32 0.66 2 1 C1.43623218 4.94637474 0.4640248 7.83196811 -2 11 C-4.6875 11.8125 -4.6875 11.8125 -7 12 C-7.33 10.68 -7.66 9.36 -8 8 C-5.625 6.9375 -5.625 6.9375 -3 6 C-2.34 6.33 -1.68 6.66 -1 7 C-0.67 4.69 -0.34 2.38 0 0 Z " fill="#D8BB71" transform="translate(311,228)"/>
<path d="M0 0 C0.33 0 0.66 0 1 0 C1.54372951 3.05847848 2 5.88772805 2 9 C1.01 9.495 1.01 9.495 0 10 C-0.31241455 12.71446979 -0.51336592 15.33909361 -0.625 18.0625 C-0.66367188 18.82111328 -0.70234375 19.57972656 -0.7421875 20.36132812 C-0.83673562 22.24047195 -0.91946756 24.12020336 -1 26 C-1.33 26 -1.66 26 -2 26 C-2.3690205 8.14350797 -2.3690205 8.14350797 0 0 Z " fill="#E4C88B" transform="translate(178,189)"/>
<path d="M0 0 C4.75 0.75 4.75 0.75 7 3 C9.10820797 2.6814823 9.10820797 2.6814823 11 2 C11.625 3.8125 11.625 3.8125 12 6 C11.01 7.485 11.01 7.485 10 9 C9.62875 8.5875 9.2575 8.175 8.875 7.75 C6.90055474 5.80966847 6.90055474 5.80966847 3.875 3.9375 C1 2 1 2 0 0 Z " fill="#CFAF65" transform="translate(227,129)"/>
<path d="M0 0 C0.99 0.33 1.98 0.66 3 1 C2.67 3.31 2.34 5.62 2 8 C3.32 8.33 4.64 8.66 6 9 C6 9.33 6 9.66 6 10 C3.36 10.33 0.72 10.66 -2 11 C-1.34 7.37 -0.68 3.74 0 0 Z " fill="#D5BA4A" transform="translate(92,306)"/>
<path d="M0 0 C3.3 0 6.6 0 10 0 C10 0.99 10 1.98 10 3 C6.7 3.33 3.4 3.66 0 4 C-0.33 3.34 -0.66 2.68 -1 2 C-0.67 1.34 -0.34 0.68 0 0 Z " fill="#DAB749" transform="translate(303,305)"/>
<path d="M0 0 C1.32 0 2.64 0 4 0 C4.33 0.99 4.66 1.98 5 3 C5.66 3.33 6.32 3.66 7 4 C7 4.66 7 5.32 7 6 C4.69 6.33 2.38 6.66 0 7 C0 4.69 0 2.38 0 0 Z " fill="#D6B054" transform="translate(287,222)"/>
<path d="M0 0 C2.97 0.495 2.97 0.495 6 1 C6 1.33 6 1.66 6 2 C4.02 2 2.04 2 0 2 C0.66 3.32 1.32 4.64 2 6 C1.01 7.485 1.01 7.485 0 9 C-1.65 8.67 -3.3 8.34 -5 8 C-3.88213958 4.64641875 -2.25245881 2.68841859 0 0 Z " fill="#CEAF60" transform="translate(227,105)"/>
<path d="M0 0 C0.66 0.33 1.32 0.66 2 1 C-3.20391664 4.75248411 -7.68688724 7.65678452 -14 9 C-14 8.01 -14 7.02 -14 6 C-13.15695312 5.65066406 -12.31390625 5.30132812 -11.4453125 4.94140625 C-10.34960938 4.48636719 -9.25390625 4.03132813 -8.125 3.5625 C-7.03445313 3.11003906 -5.94390625 2.65757812 -4.8203125 2.19140625 C-3.19441376 1.50456537 -1.57868226 0.78934113 0 0 Z " fill="#897A4B" transform="translate(287,265)"/>
<path d="M0 0 C1.65 0.33 3.3 0.66 5 1 C4.01 4.96 3.02 8.92 2 13 C1.67 13 1.34 13 1 13 C0.67 10.36 0.34 7.72 0 5 C-0.66 5 -1.32 5 -2 5 C-2 4.34 -2 3.68 -2 3 C-1.34 3 -0.68 3 0 3 C0 2.01 0 1.02 0 0 Z " fill="#E0C076" transform="translate(185,184)"/>
<path d="M0 0 C2.97 0 5.94 0 9 0 C9.33 0.66 9.66 1.32 10 2 C9.21625 2.0825 8.4325 2.165 7.625 2.25 C4.85250896 2.72806339 4.85250896 2.72806339 3.6875 5.0625 C3.3471875 6.0215625 3.3471875 6.0215625 3 7 C2.34 7 1.68 7 1 7 C0.67 4.69 0.34 2.38 0 0 Z " fill="#D4B575" transform="translate(261,293)"/>
<path d="M0 0 C2.4120667 0.52593936 4.65207188 1.21735729 7 2 C7 2.99 7 3.98 7 5 C6.34 5 5.68 5 5 5 C5 4.34 5 3.68 5 3 C-0.28 2.67 -5.56 2.34 -11 2 C-7.26269935 -0.49153377 -4.32345184 -0.41025455 0 0 Z " fill="#CFB172" transform="translate(306,293)"/>
<path d="M0 0 C0.33 0 0.66 0 1 0 C1 4.95 1 9.9 1 15 C0.34 15 -0.32 15 -1 15 C-1.22304441 13.25181409 -1.4278645 11.50129677 -1.625 9.75 C-1.74101562 8.77546875 -1.85703125 7.8009375 -1.9765625 6.796875 C-2.00112537 3.86570607 -1.5312717 2.45471036 0 0 Z " fill="#C3A970" transform="translate(294,188)"/>
<path d="M0 0 C4.95 0 9.9 0 15 0 C13.35 1.32 11.7 2.64 10 4 C9.67 3.34 9.34 2.68 9 2 C4.545 2.495 4.545 2.495 0 3 C0 2.01 0 1.02 0 0 Z " fill="#BFA564" transform="translate(236,188)"/>
<path d="M0 0 C1.99550146 1.99550146 2.81376393 3.47924835 4 6 C4.37125 6.70125 4.7425 7.4025 5.125 8.125 C6 10 6 10 6 12 C7.32 12.66 8.64 13.32 10 14 C7 14 7 14 4.4375 11.8125 C0.94298563 7.78036804 0 5.32786724 0 0 Z " fill="#BFA460" transform="translate(257,216)"/>
<path d="M0 0 C6.42857143 4.14285714 6.42857143 4.14285714 9 7 C6 8 6 8 3 7 C3 6.34 3 5.68 3 5 C2.01 5 1.02 5 0 5 C0 3.35 0 1.7 0 0 Z " fill="#E7C06E" transform="translate(204,255)"/>
<path d="M0 0 C0.66 0 1.32 0 2 0 C2 0.66 2 1.32 2 2 C3.98 1.67 5.96 1.34 8 1 C4.35140239 4.04049801 0.2555467 5.96518762 -4 8 C-4.66 7.34 -5.32 6.68 -6 6 C-4 5 -2 4 0 3 C0 2.01 0 1.02 0 0 Z " fill="#E5BF5F" transform="translate(220,146)"/>
<path d="M0 0 C0 2.64 0 5.28 0 8 C-0.66 8 -1.32 8 -2 8 C-2 6.02 -2 4.04 -2 2 C-6.29 2 -10.58 2 -15 2 C-15 1.67 -15 1.34 -15 1 C-12.8750734 0.83240016 -10.75005624 0.66594799 -8.625 0.5 C-7.44164062 0.4071875 -6.25828125 0.314375 -5.0390625 0.21875 C-3.36213157 0.09804546 -1.68126944 0 0 0 Z " fill="#CAB371" transform="translate(211,309)"/>
<path d="M0 0 C0.66 0.33 1.32 0.66 2 1 C1.34 3.31 0.68 5.62 0 8 C-1.32 8.33 -2.64 8.66 -4 9 C-4 8.34 -4 7.68 -4 7 C-4.66 6.67 -5.32 6.34 -6 6 C-4.02 4.02 -2.04 2.04 0 0 Z " fill="#CFA953" transform="translate(270,123)"/>
<path d="M0 0 C1.16959987 0.97566112 2.33561177 1.955625 3.5 2.9375 C4.1496875 3.48277344 4.799375 4.02804688 5.46875 4.58984375 C6.22671875 5.28787109 6.22671875 5.28787109 7 6 C7 6.33 7 6.66 7 7 C3.625 7.125 3.625 7.125 0 7 C-0.66 6.34 -1.32 5.68 -2 5 C-1.34 3.35 -0.68 1.7 0 0 Z " fill="#BDA35D" transform="translate(269,226)"/>
<path d="M0 0 C0.99 0.495 0.99 0.495 2 1 C1.01 1.495 1.01 1.495 0 2 C0 1.34 0 0.68 0 0 Z M3 1 C3.66 1 4.32 1 5 1 C5.33 1.99 5.66 2.98 6 4 C2.535 5.485 2.535 5.485 -1 7 C-1.33 5.68 -1.66 4.36 -2 3 C-0.33333333 3 1.33333333 3 3 3 C3 2.34 3 1.68 3 1 Z " fill="#D6B94D" transform="translate(232,310)"/>
<path d="M0 0 C2 0 2 0 4.125 2 C4.74375 2.66 5.3625 3.32 6 4 C6.33 3.01 6.66 2.02 7 1 C7.33 1.66 7.66 2.32 8 3 C7.06553465 5.03144641 6.06775224 7.03533587 5 9 C1.9083091 6.47043472 1.09068668 3.77545388 0 0 Z " fill="#CCAF6E" transform="translate(99,307)"/>
<path d="M0 0 C0.66 0 1.32 0 2 0 C1.43628586 3.26954202 0.50037734 4.82575883 -2 7 C-3.98 6.34 -5.96 5.68 -8 5 C-8 4.67 -8 4.34 -8 4 C-7.236875 3.896875 -6.47375 3.79375 -5.6875 3.6875 C-2.78105605 2.94399108 -1.96433971 2.15141968 0 0 Z " fill="#CEB561" transform="translate(404,294)"/>
<path d="M0 0 C1.32 0.66 2.64 1.32 4 2 C3.01 2.495 3.01 2.495 2 3 C4.97 3.33 7.94 3.66 11 4 C11 4.33 11 4.66 11 5 C6.05 5 1.1 5 -4 5 C-2.68 3.35 -1.36 1.7 0 0 Z " fill="#BAA164" transform="translate(252,138)"/>
<path d="M0 0 C0.33 0.99 0.66 1.98 1 3 C0.67 3.66 0.34 4.32 0 5 C1.32 5.66 2.64 6.32 4 7 C3.01 8.32 2.02 9.64 1 11 C1 9.68 1 8.36 1 7 C0.34 7 -0.32 7 -1 7 C-2 4 -2 4 -1.0625 1.8125 C-0.5365625 0.9153125 -0.5365625 0.9153125 0 0 Z M3 2 C3.66 2.33 4.32 2.66 5 3 C4.01 3.66 3.02 4.32 2 5 C2.33 4.01 2.66 3.02 3 2 Z " fill="#CEAE61" transform="translate(106,297)"/>
<path d="M0 0 C1.65 0.33 3.3 0.66 5 1 C5 1.66 5 2.32 5 3 C5.66 3.33 6.32 3.66 7 4 C6.01 5.485 6.01 5.485 5 7 C3.68 6.67 2.36 6.34 1 6 C1.33 5.34 1.66 4.68 2 4 C1.01 3.67 0.02 3.34 -1 3 C-0.67 2.01 -0.34 1.02 0 0 Z " fill="#E6BD5E" transform="translate(235,272)"/>
<path d="M0 0 C2 3 2 3 2 6 C0 7.6875 0 7.6875 -2 9 C-2.66 8.67 -3.32 8.34 -4 8 C-3.6875 5.125 -3.6875 5.125 -3 2 C-2.01 1.34 -1.02 0.68 0 0 Z " fill="#110C06" transform="translate(293,256)"/>
<path d="M0 0 C1.32 0.33 2.64 0.66 4 1 C1.03 3.64 -1.94 6.28 -5 9 C-5.33 8.01 -5.66 7.02 -6 6 C-5.34 6 -4.68 6 -4 6 C-3.67 4.68 -3.34 3.36 -3 2 C-2.01 2 -1.02 2 0 2 C0 1.34 0 0.68 0 0 Z " fill="#E4C36B" transform="translate(207,157)"/>
<path d="M0 0 C0.66 0.33 1.32 0.66 2 1 C-1.0657052 5.65987191 -3.58657319 6.85485202 -9 8 C-6.14723863 5.06799526 -3.34920216 2.35684596 0 0 Z " fill="#F2D181" transform="translate(209,147)"/>
<path d="M0 0 C1.62463842 -0.05395478 3.24978541 -0.09277195 4.875 -0.125 C5.77992188 -0.14820312 6.68484375 -0.17140625 7.6171875 -0.1953125 C10 0 10 0 12 2 C11.01 3.485 11.01 3.485 10 5 C9.67 4.01 9.34 3.02 9 2 C5.7 2 2.4 2 -1 2 C-0.67 1.34 -0.34 0.68 0 0 Z " fill="#C3AD55" transform="translate(234,104)"/>
<path d="M0 0 C0 2.31 0 4.62 0 7 C-0.66 7 -1.32 7 -2 7 C-2.33 5.35 -2.66 3.7 -3 2 C-5.31 2 -7.62 2 -10 2 C-10 1.67 -10 1.34 -10 1 C-2.25 0 -2.25 0 0 0 Z " fill="#CAB366" transform="translate(206,301)"/>
<path d="M0 0 C1.98 0 3.96 0 6 0 C6 2.31 6 4.62 6 7 C5.01 7 4.02 7 3 7 C2.814375 5.824375 2.814375 5.824375 2.625 4.625 C2.20882007 1.85942178 2.20882007 1.85942178 0 0 Z " fill="#D7B34E" transform="translate(348,295)"/>
<path d="M0 0 C2.97 0.33 5.94 0.66 9 1 C8 3 8 3 5.0625 4.1875 C2 5 2 5 0 4 C0 2.68 0 1.36 0 0 Z " fill="#D9B24E" transform="translate(294,294)"/>
<path d="M0 0 C0.66 0.99 1.32 1.98 2 3 C-7.41002278 6.44419134 -7.41002278 6.44419134 -12 6 C-9.4347341 4.28982274 -7.12039035 3.09582189 -4.3125 1.875 C-3.50425781 1.52179688 -2.69601562 1.16859375 -1.86328125 0.8046875 C-1.24839844 0.53914063 -0.63351562 0.27359375 0 0 Z " fill="#867857" transform="translate(279,261)"/>
<path d="M0 0 C0.66 0 1.32 0 2 0 C0.90931332 3.77545388 0.0916909 6.47043472 -3 9 C-3.99 6.69 -4.98 4.38 -6 2 C-4 2 -4 2 -2.375 3.5 C-1.92125 3.995 -1.4675 4.49 -1 5 C-0.67 3.35 -0.34 1.7 0 0 Z " fill="#C8B26F" transform="translate(364,307)"/>
<path d="M0 0 C4.95 0.99 4.95 0.99 10 2 C10 2.66 10 3.32 10 4 C6.7 3.67 3.4 3.34 0 3 C0 2.01 0 1.02 0 0 Z " fill="#D9AF51" transform="translate(218,311)"/>
<path d="M0 0 C3 3.625 3 3.625 3 7 C1.35 7 -0.3 7 -2 7 C-1.125 1.125 -1.125 1.125 0 0 Z " fill="#DDBF40" transform="translate(159,310)"/>
<path d="M0 0 C2.53910197 0.38520564 3.72751123 0.70097943 5.484375 2.62890625 C5.90203125 3.26699219 6.3196875 3.90507812 6.75 4.5625 C7.17796875 5.20316406 7.6059375 5.84382812 8.046875 6.50390625 C8.36140625 6.99761719 8.6759375 7.49132812 9 8 C7.68 7.67 6.36 7.34 5 7 C4.67 5.68 4.34 4.36 4 3 C2.68 3.33 1.36 3.66 0 4 C0 2.68 0 1.36 0 0 Z " fill="#E4C176" transform="translate(192,243)"/>
<path d="M0 0 C1.98 0.66 3.96 1.32 6 2 C5.34 3.65 4.68 5.3 4 7 C2.35 6.67 0.7 6.34 -1 6 C-0.67 4.02 -0.34 2.04 0 0 Z " fill="#CBAB66" transform="translate(220,157)"/>
<path d="M0 0 C1.98 0.99 1.98 0.99 4 2 C4 4.31 4 6.62 4 9 C3.01 9.495 3.01 9.495 2 10 C1.34 6.7 0.68 3.4 0 0 Z " fill="#CCB36A" transform="translate(235,303)"/>
<path d="M0 0 C1.5625 1.1875 1.5625 1.1875 3 3 C2.6875 5.6875 2.6875 5.6875 2 8 C1.01 8 0.02 8 -1 8 C-0.67 5.36 -0.34 2.72 0 0 Z " fill="#DBBA47" transform="translate(351,309)"/>
<path d="M0 0 C0.66 0.33 1.32 0.66 2 1 C1.360625 1.61875 0.72125 2.2375 0.0625 2.875 C-2.03883584 4.82597612 -2.03883584 4.82597612 -3 7 C-2.01 7 -1.02 7 0 7 C0 7.66 0 8.32 0 9 C-1.65 8.67 -3.3 8.34 -5 8 C-2.25 1.125 -2.25 1.125 0 0 Z " fill="#D6BF51" transform="translate(128,308)"/>
<path d="M0 0 C1.32 0 2.64 0 4 0 C4 0.66 4 1.32 4 2 C4.66 2 5.32 2 6 2 C6 2.66 6 3.32 6 4 C5.38125 4.144375 4.7625 4.28875 4.125 4.4375 C1.96741678 4.93152225 1.96741678 4.93152225 0 6 C0 4.02 0 2.04 0 0 Z " fill="#D7B34B" transform="translate(289,306)"/>
<path d="M0 0 C3.9126984 1.3042328 6.37310241 2.78934739 9 6 C9 6.99 9 7.98 9 9 C7 9 7 9 5.2734375 7.28515625 C4.64695313 6.55167969 4.02046875 5.81820313 3.375 5.0625 C2.74335938 4.33160156 2.11171875 3.60070312 1.4609375 2.84765625 C0 1 0 1 0 0 Z " fill="#EDCF8F" transform="translate(190,251)"/>
<path d="M0 0 C1.99097846 2.98646769 2.94124926 5.59687262 4 9 C2.35 8.67 0.7 8.34 -1 8 C-0.67 5.36 -0.34 2.72 0 0 Z " fill="#BEA056" transform="translate(213,191)"/>
<path d="M0 0 C3 3.75 3 3.75 3 6 C2.01 6 1.02 6 0 6 C-0.33 6.66 -0.66 7.32 -1 8 C-1.66 7.34 -2.32 6.68 -3 6 C-2.01 4.02 -1.02 2.04 0 0 Z " fill="#C2A861" transform="translate(302,236)"/>
<path d="M0 0 C2.09782787 2.09782787 2.6509396 3.3799207 3.625 6.125 C3.88539063 6.84945312 4.14578125 7.57390625 4.4140625 8.3203125 C4.70410156 9.15175781 4.70410156 9.15175781 5 10 C4.01 10.495 4.01 10.495 3 11 C2.30034557 9.73581754 1.61565237 8.46334598 0.9375 7.1875 C0.55464844 6.47980469 0.17179688 5.77210938 -0.22265625 5.04296875 C-1 3 -1 3 0 0 Z " fill="#EBCD93" transform="translate(182,233)"/>
<path d="M0 0 C0 2 0 2 -2.3125 4.5625 C-5 7 -5 7 -8 8 C-6.65580512 3.85539913 -4.87800266 0 0 0 Z " fill="#1D1106" transform="translate(278,189)"/>
<path d="M0 0 C2.475 0.495 2.475 0.495 5 1 C4.67 2.32 4.34 3.64 4 5 C2.68 4.67 1.36 4.34 0 4 C0 2.68 0 1.36 0 0 Z " fill="#AC925B" transform="translate(270,141)"/>
<path d="M0 0 C2.0625 0.4375 2.0625 0.4375 4 1 C3.34 2.65 2.68 4.3 2 6 C0.68 5.01 -0.64 4.02 -2 3 C-1 1 -1 1 0 0 Z " fill="#D6AB68" transform="translate(228,116)"/>
<path d="M0 0 C0.66 1.32 1.32 2.64 2 4 C1.67 4.33 1.34 4.66 1 5 C1.66 5.66 2.32 6.32 3 7 C1.02 7 -0.96 7 -3 7 C-3 6.01 -3 5.02 -3 4 C-2.34 3.67 -1.68 3.34 -1 3 C-0.67 2.01 -0.34 1.02 0 0 Z " fill="#E0C83A" transform="translate(146,310)"/>
<path d="M0 0 C2.38564077 0.57584432 4.66682784 1.22227595 7 2 C7 2.66 7 3.32 7 4 C4.69 3.67 2.38 3.34 0 3 C0 2.01 0 1.02 0 0 Z " fill="#DCC63F" transform="translate(222,295)"/>
<path d="M0 0 C0 0.66 0 1.32 0 2 C-1.75 2.6875 -1.75 2.6875 -4 3 C-6.25 1.5625 -6.25 1.5625 -8 0 C-5.13822943 -1.43088528 -3.06624227 -0.59991697 0 0 Z " fill="#D1B064" transform="translate(254,106)"/>
<path d="M0 0 C0.66 0 1.32 0 2 0 C2.33 1.65 2.66 3.3 3 5 C1.35 5 -0.3 5 -2 5 C-1.125 1.125 -1.125 1.125 0 0 Z " fill="#DEC639" transform="translate(372,312)"/>
<path d="M0 0 C1 3 1 3 0.0625 5.1875 C-0.4634375 6.0846875 -0.4634375 6.0846875 -1 7 C-1.99 6.01 -2.98 5.02 -4 4 C-3.67 3.01 -3.34 2.02 -3 1 C-3 1.66 -3 2.32 -3 3 C-2.34 3 -1.68 3 -1 3 C-0.67 2.01 -0.34 1.02 0 0 Z " fill="#BCA163" transform="translate(222,226)"/>
<path d="M0 0 C-2.22189824 2.22189824 -4.08482708 2.92598892 -7 4 C-7 3.34 -7 2.68 -7 2 C-7.99 1.67 -8.98 1.34 -10 1 C-6.52674819 -0.1577506 -3.63932552 -0.06866652 0 0 Z " fill="#B19B68" transform="translate(281,187)"/>
<path d="M0 0 C-1.90401138 1.90401138 -3.33425686 2.93520439 -6.046875 3.19921875 C-8.03233273 3.1886578 -10.0169914 3.09915043 -12 3 C-8.2391768 -0.7608232 -5.0273023 -0.25136512 0 0 Z " fill="#413220" transform="translate(242,154)"/>
<path d="M0 0 C1.32 0 2.64 0 4 0 C3.67 1.32 3.34 2.64 3 4 C1.68 4.33 0.36 4.66 -1 5 C-0.67 3.35 -0.34 1.7 0 0 Z " fill="#FACB50" transform="translate(216,147)"/>
<path d="M0 0 C0.82810826 3.31243305 1.09278428 5.65976579 1 9 C-0.32 9.33 -1.64 9.66 -3 10 C-2.01 6.7 -1.02 3.4 0 0 Z " fill="#C2A96B" transform="translate(306,226)"/>
<path d="M0 0 C2 3 2 3 2 6 C0.02 5.34 -1.96 4.68 -4 4 C-2.68 2.68 -1.36 1.36 0 0 Z " fill="#F8CD57" transform="translate(209,150)"/>
<path d="M0 0 C0.33 0.99 0.66 1.98 1 3 C-3.455 3.495 -3.455 3.495 -8 4 C-6.4425489 0.88509781 -3.40085499 0 0 0 Z " fill="#C6AE67" transform="translate(243,151)"/>
</svg>
